<svg width="410" height="224" viewBox="0 0 410 224" fill="none" xmlns="http://www.w3.org/2000/svg">
<path d="M126.216 346.244C116.399 340.598 33.6483 286.96 40.661 188.154C46.2712 117.578 96.7629 59.7063 165.488 42.7681C249.64 24.4184 350.624 66.7639 380.077 182.508L382.882 192.389C399.713 260.141 420.751 336.363 516.124 336.363H525.942C537.162 336.363 545.578 327.894 545.578 316.602C545.578 305.31 537.162 296.841 525.942 296.841H516.124C454.412 296.841 440.387 255.907 422.154 183.92L419.348 174.039C382.882 34.299 259.458 -16.5155 157.072 4.65724C71.5171 24.4184 8.40249 96.4056 1.38976 183.92C-5.62297 278.491 53.284 347.655 106.581 380.12C109.386 381.531 113.593 382.943 116.399 382.943C123.411 382.943 130.424 380.12 133.229 373.062C138.839 364.593 136.034 351.89 126.216 346.244Z" fill="#E503B0"/>
<path d="M347.836 176.865C349.238 154.281 339.42 114.759 307.162 109.113C286.124 103.467 265.085 116.17 259.475 137.343C258.073 138.754 258.073 141.577 256.67 142.989C253.865 147.694 250.125 150.517 245.45 151.458C244.047 151.458 234.229 151.458 193.556 133.108C168.31 123.228 141.661 116.17 115.013 113.347C106.598 113.347 99.5849 117.582 95.3773 124.639C79.9493 150.047 78.5467 181.1 92.5722 206.507C98.1824 219.211 105.195 230.503 115.013 240.383C117.818 243.206 119.221 246.029 122.026 248.852C126.233 262.968 129.038 277.083 127.636 291.198C127.636 301.079 131.843 310.959 140.259 316.605C148.674 322.251 158.492 323.663 168.31 320.84C169.712 320.84 171.115 320.84 171.115 319.428C178.128 326.486 185.14 333.543 190.75 340.601C194.958 346.247 197.763 351.893 200.568 357.539C206.178 374.477 221.606 385.769 239.84 387.181H242.645C270.696 387.181 302.954 364.597 321.187 330.72C332.408 308.136 339.42 284.14 340.823 258.733C342.225 243.206 340.823 227.68 336.615 213.565C336.615 212.153 338.018 210.742 338.018 209.33C343.628 199.45 346.433 188.157 347.836 176.865ZM307.162 175.454C307.162 182.511 304.357 188.157 301.552 193.803C300.149 198.038 298.746 200.861 295.941 205.096C293.136 210.742 293.136 216.388 295.941 222.034C304.357 253.087 300.149 284.14 284.721 312.371C276.306 330.72 259.475 343.424 239.84 347.658C238.437 347.658 237.034 347.659 235.632 344.835C231.424 334.955 227.217 326.486 220.204 318.017C210.386 306.725 199.166 295.432 187.945 284.14C183.738 281.317 179.53 278.494 173.92 278.494C171.115 278.494 168.31 278.494 165.505 279.906C164.102 243.206 155.687 231.914 152.882 227.68C150.077 223.445 147.271 219.211 143.064 214.976C136.051 207.919 130.441 199.45 126.233 189.569C120.623 179.688 119.221 168.396 123.428 157.104C141.661 159.927 158.492 165.573 175.322 171.219C221.606 190.98 237.034 193.803 248.255 192.392C266.488 190.98 281.916 179.688 288.929 162.75C290.331 159.927 291.734 158.516 293.136 155.693C294.539 152.87 295.941 151.458 295.941 148.635H297.344C302.954 150.047 308.564 164.162 307.162 175.454Z" fill="#E503B0"/>
<path d="M187.943 212.15C180.93 213.561 175.32 222.03 178.125 229.088C179.527 236.145 187.943 241.791 194.955 238.968C201.968 237.557 207.578 229.088 204.773 222.03C203.371 214.973 196.358 210.738 189.345 212.15H187.943Z" fill="#E503B0"/>
</svg>
