<svg width="410" height="242" viewBox="0 0 410 242" fill="none" xmlns="http://www.w3.org/2000/svg">
<path d="M126.216 102.244C116.399 96.5976 33.6483 42.9601 40.661 -55.8459C46.2712 -126.422 96.7629 -184.294 165.488 -201.232C249.64 -219.582 350.624 -177.236 380.077 -61.492L382.882 -51.6114C399.713 16.1413 420.751 92.363 516.124 92.363H525.942C537.162 92.363 545.578 83.894 545.578 72.6018C545.578 61.3097 537.162 52.8406 525.942 52.8406H516.124C454.412 52.8406 440.387 11.9067 422.154 -60.0805L419.348 -69.9611C382.882 -209.701 259.458 -260.515 157.072 -239.343C71.5171 -219.582 8.40249 -147.594 1.38976 -60.0805C-5.62297 34.4909 53.284 103.655 106.581 136.12C109.386 137.531 113.593 138.943 116.399 138.943C123.411 138.943 130.424 136.12 133.229 129.062C138.839 120.593 136.034 107.89 126.216 102.244Z" fill="#E503B0"/>
<path d="M542.792 195.404C507.729 147.412 458.64 112.124 402.538 92.3632C392.72 89.5401 380.097 95.1862 377.292 105.067C374.487 114.947 380.097 127.651 389.915 130.474C434.796 147.412 474.068 175.643 504.924 212.342C499.313 227.869 493.703 241.984 486.691 256.099C482.483 265.979 486.691 278.683 496.508 282.918C499.313 284.329 502.119 284.329 504.924 284.329C513.339 284.329 520.352 280.095 523.157 273.037C531.572 256.099 538.585 236.338 545.597 217.988C547 215.165 547 212.342 547 209.519C547 205.284 545.597 199.638 542.792 195.404Z" fill="#E503B0"/>
<path d="M347.836 -67.1347C349.238 -89.719 339.42 -129.241 307.162 -134.887C286.124 -140.533 265.085 -127.83 259.475 -106.657C258.073 -105.246 258.073 -102.423 256.67 -101.011C253.865 -96.306 250.125 -93.483 245.45 -92.542C244.047 -92.542 234.229 -92.542 193.556 -110.892C168.31 -120.772 141.661 -127.83 115.013 -130.653C106.598 -130.653 99.5849 -126.418 95.3773 -119.361C79.9493 -93.9535 78.5467 -62.9002 92.5722 -37.4929C98.1824 -24.7893 105.195 -13.4972 115.013 -3.61658C117.818 -0.793549 119.221 2.02945 122.026 4.85248C126.233 18.9676 129.038 33.0828 127.636 47.1979C127.636 57.0785 131.843 66.9591 140.259 72.6052C148.674 78.2512 158.492 79.6628 168.31 76.8397C169.712 76.8397 171.115 76.8397 171.115 75.4282C178.128 82.4858 185.14 89.5434 190.75 96.6009C194.958 102.247 197.763 107.893 200.568 113.539C206.178 130.477 221.606 141.769 239.84 143.181H242.645C270.696 143.181 302.954 120.597 321.187 86.7203C332.408 64.1361 339.42 40.1404 340.823 14.7331C342.225 -0.793564 340.823 -16.3202 336.615 -30.4354C336.615 -31.8469 338.018 -33.2584 338.018 -34.6699C343.628 -44.5505 346.433 -55.8426 347.836 -67.1347ZM307.162 -68.5462C307.162 -61.4887 304.357 -55.8426 301.552 -50.1966C300.149 -45.962 298.746 -43.139 295.941 -38.9044C293.136 -33.2584 293.136 -27.6123 295.941 -21.9663C304.357 9.08704 300.149 40.1403 284.721 68.3706C276.306 86.7203 259.475 99.424 239.84 103.658C238.437 103.658 237.034 103.659 235.632 100.835C231.424 90.9549 227.217 82.4858 220.204 74.0167C210.386 62.7246 199.166 51.4324 187.945 40.1403C183.738 37.3173 179.53 34.4943 173.92 34.4943C171.115 34.4943 168.31 34.4943 165.505 35.9058C164.102 -0.793564 155.687 -12.0857 152.882 -16.3202C150.077 -20.5548 147.271 -24.7893 143.064 -29.0238C136.051 -36.0814 130.441 -44.5505 126.233 -54.4311C120.623 -64.3117 119.221 -75.6038 123.428 -86.8959C141.661 -84.0729 158.492 -78.4268 175.322 -72.7808C221.606 -53.0196 237.034 -50.1966 248.255 -51.6081C266.488 -53.0196 281.916 -64.3117 288.929 -81.2499C290.331 -84.0729 291.734 -85.4844 293.136 -88.3074C294.539 -91.1305 295.941 -92.542 295.941 -95.365H297.344C302.954 -93.9535 308.564 -79.8383 307.162 -68.5462Z" fill="#E503B0"/>
<path d="M447.412 244.805C408.141 206.694 354.844 186.933 300.145 186.933C260.874 185.521 221.602 193.99 186.539 212.34C169.708 179.875 136.047 158.703 98.1782 157.291C43.4789 157.291 0 201.048 0 256.097C0 311.146 43.4789 354.903 98.1782 354.903H395.518C406.738 354.903 415.154 346.434 415.154 335.142C415.154 323.85 406.738 315.381 395.518 315.381H99.5808C67.3222 315.381 42.0764 289.973 42.0764 257.508C42.0764 225.044 67.3222 199.636 99.5808 199.636C126.229 199.636 150.072 219.398 155.683 246.216V247.628C155.683 251.862 157.085 256.097 159.89 258.92C166.903 267.389 179.526 268.801 187.941 261.743C214.59 240.57 252.458 229.278 300.145 229.278C345.026 229.278 387.103 246.216 419.361 277.27C423.569 281.504 427.777 282.916 433.387 282.916C438.997 282.916 444.607 280.093 447.412 275.858C457.23 267.389 458.633 253.274 450.217 243.393C448.815 244.805 448.815 243.393 447.412 244.805Z" fill="#E503B0"/>
</svg>
