<svg width="410" height="227" viewBox="0 0 410 227" fill="none" xmlns="http://www.w3.org/2000/svg">
<path d="M443.198 135.252C392.706 193.124 318.371 227 241.231 227H234.218C189.337 227 147.261 212.885 109.392 188.889C74.3282 163.482 47.6798 126.783 35.0569 85.8486C32.2518 78.7911 30.8493 71.7335 29.4467 64.6759C26.6416 54.7953 33.6543 43.5032 43.4722 40.6802H47.6798C57.4976 40.6802 65.9129 47.7378 68.718 56.2069C68.718 57.6184 70.1205 60.4414 70.1205 61.8529C72.9256 78.7911 79.9384 94.3177 88.3536 109.844C120.612 163.482 180.922 186.066 234.218 187.478C302.943 188.889 368.863 160.659 413.744 108.433C420.757 99.9638 433.38 99.9638 441.795 107.021C450.211 112.667 451.613 123.96 446.003 132.429C444.6 133.84 444.6 135.252 443.198 135.252Z" fill="#E503B0"/>
<path d="M542.792 -66.5963C507.729 -114.588 458.64 -149.876 402.538 -169.637C392.72 -172.46 380.097 -166.814 377.292 -156.933C374.487 -147.053 380.097 -134.349 389.915 -131.526C434.796 -114.588 474.068 -86.3575 504.924 -49.6581C499.313 -34.1314 493.703 -20.0163 486.691 -5.90118C482.483 3.97942 486.691 16.6831 496.508 20.9176C499.313 22.3291 502.119 22.3291 504.924 22.3291C513.339 22.3291 520.352 18.0946 523.157 11.037C531.572 -5.90117 538.585 -25.6624 545.597 -44.0121C547 -46.8351 547 -49.6581 547 -52.4811C547 -56.7157 545.597 -62.3618 542.792 -66.5963Z" fill="#E503B0"/>
<path d="M447.412 -17.1951C408.141 -55.306 354.844 -75.0672 300.145 -75.0672C260.874 -76.4787 221.602 -68.0096 186.539 -49.6599C169.708 -82.1247 136.047 -103.297 98.1782 -104.709C43.4789 -104.709 0 -60.9521 0 -5.90302C0 49.146 43.4789 92.903 98.1782 92.903H395.518C406.738 92.903 415.154 84.4338 415.154 73.1417C415.154 61.8496 406.738 53.3806 395.518 53.3806H99.5808C67.3222 53.3806 42.0764 27.9733 42.0764 -4.49152C42.0764 -36.9563 67.3222 -62.3636 99.5808 -62.3636C126.229 -62.3636 150.072 -42.6024 155.683 -15.7836V-14.3721C155.683 -10.1375 157.085 -5.90301 159.89 -3.07998C166.903 5.38911 179.526 6.80063 187.941 -0.256943C214.59 -21.4296 252.458 -32.7218 300.145 -32.7218C345.026 -32.7218 387.103 -15.7836 419.361 15.2697C423.569 19.5042 427.777 20.9158 433.387 20.9158C438.997 20.9158 444.607 18.0927 447.412 13.8582C457.23 5.38911 458.633 -8.72607 450.217 -18.6067C448.815 -17.1952 448.815 -18.6066 447.412 -17.1951Z" fill="#E503B0"/>
</svg>
