<?xml version="1.0" encoding="utf-8"?>
<!-- Generator: Adobe Illustrator 25.4.1, SVG Export Plug-In . SVG Version: 6.00 Build 0)  -->
<svg version="1.1" id="Layer_1" xmlns="http://www.w3.org/2000/svg" xmlns:xlink="http://www.w3.org/1999/xlink" x="0px" y="0px"
	 viewBox="0 0 230.5 62.7" style="enable-background:new 0 0 230.5 62.7;" xml:space="preserve">
<style type="text/css">
	.st0{fill:#E503B0;}
	.st1{fill:#E503B0;stroke:#E503B0;stroke-width:1.5;stroke-miterlimit:10;}
</style>
<g>
	<path class="st0" d="M211.5,14c0.4,0,0.8-0.3,0.8-0.8v-2.3c0-0.4-0.3-0.8-0.8-0.8h-17c-0.4,0-0.8,0.3-0.8,0.8v24.5
		c0,0.4,0.3,0.8,0.8,0.8h17c0.4,0,0.8-0.3,0.8-0.8v-2.3c0-0.4-0.3-0.8-0.8-0.8h-13.7v-7.1h12.2c0.4,0,0.8-0.3,0.8-0.8V22
		c0-0.4-0.3-0.8-0.8-0.8h-12.2V14H211.5z"/>
	<g>
		<path class="st0" d="M149.8,10.1h-17c-0.4,0-0.8,0.3-0.8,0.8v5.9h4.1V14h13.7c0.4,0,0.8-0.3,0.8-0.8v-2.3
			C150.5,10.5,150.2,10.1,149.8,10.1z"/>
		<path class="st0" d="M149.8,32.3h-13.7v-7.1h12.2c0.4,0,0.8-0.3,0.8-0.8V22c0-0.4-0.3-0.8-0.8-0.8h-12.2v-1.7H132v15.8
			c0,0.4,0.3,0.8,0.8,0.8h17c0.4,0,0.8-0.3,0.8-0.8v-2.3C150.5,32.6,150.2,32.3,149.8,32.3z"/>
	</g>
	<g>
		<path class="st0" d="M188,10.1h-2.6c-0.4,0-0.8,0.3-0.8,0.8v5.9h4.1v-5.9C188.8,10.5,188.4,10.1,188,10.1z"/>
		<path class="st0" d="M184.7,35.4c0,0.4,0.3,0.8,0.8,0.8h2.6c0.4,0,0.8-0.3,0.8-0.8V19.6h-4.1V35.4z"/>
	</g>
	<path class="st0" d="M73,10.1h-8.5c-0.4,0-0.8,0.3-0.8,0.8v5.9h4.1V14h5.1c3.8,0,6.2,2,6.2,5c0,3.2-2.4,5.2-6.2,5.2h-5.1v-4.6h-4.1
		v15.8c0,0.4,0.3,0.8,0.8,0.8H67c0.4,0,0.8-0.3,0.8-0.8v-7.3h4.9c6.3,0,10.5-3.7,10.5-9.1C83.1,13.7,79.1,10.1,73,10.1z"/>
	<path class="st0" d="M106.9,34.9l-7-8.2c3.5-1.1,5.8-3.7,6.1-7.1h-4.1c-0.4,2.3-2.7,3.8-6,3.8h-5.7v-3.8v-2.9V14h5.7
		c2.8,0,4.8,1,5.6,2.7h4.3c-0.9-4-4.7-6.6-9.9-6.6h-9.1c-0.4,0-0.8,0.3-0.8,0.8v2.7v3.2v2.9v4v11.9c0,0.4,0.3,0.8,0.8,0.8h2.6
		c0.4,0,0.8-0.3,0.8-0.8v-8.1h5l7.5,8.6c0.1,0.2,0.4,0.3,0.6,0.3h3.2c0.3,0,0.6-0.2,0.7-0.4C107.1,35.4,107.1,35.1,106.9,34.9z"/>
	<path class="st0" d="M127.3,14c0.4,0,0.8-0.3,0.8-0.8v-2.3c0-0.4-0.3-0.8-0.8-0.8h-17c-0.4,0-0.8,0.3-0.8,0.8v5.9l0,0v2.9l0,0v15.8
		c0,0.4,0.3,0.8,0.8,0.8h17c0.4,0,0.8-0.3,0.8-0.8v-2.3c0-0.4-0.3-0.8-0.8-0.8h-13.7v-7.1h12.2c0.4,0,0.8-0.3,0.8-0.8V22
		c0-0.4-0.3-0.8-0.8-0.8h-12.2v-7h0V14H127.3z"/>
	<path class="st0" d="M178.9,10.1h-1.9c-0.3,0-0.5,0.1-0.7,0.4l-5.4,9.1l0,0L167,26l-9.2-15.5c0-0.1-0.1-0.1-0.1-0.2
		c-0.1-0.1-0.3-0.2-0.5-0.2h-2c-0.4,0-0.8,0.3-0.8,0.8v5.9v2.9v15.8c0,0.2,0.1,0.4,0.2,0.5c0.1,0.1,0.3,0.2,0.5,0.2h2.6
		c0.2,0,0.4-0.1,0.5-0.2c0.1-0.1,0.2-0.3,0.2-0.5l-0.1-16.2l0.2,0.4l6.8,11.4c0,0.1,0.1,0.1,0.1,0.2c0.1,0.1,0.3,0.2,0.5,0.2h1.7
		c0.3,0,0.5-0.1,0.7-0.4l7-11.7l0,16.1c0,0.2,0.1,0.4,0.2,0.5c0.1,0.1,0.3,0.2,0.5,0.2h2.6c0.4,0,0.8-0.3,0.8-0.8V10.9
		C179.6,10.5,179.3,10.1,178.9,10.1z"/>
</g>
<g>
	<g>
		<path class="st0" d="M39.4,45.4c-1.2,0-2.1,0.9-2.1,2.1c0,1.2,0.9,2.1,2.1,2.1c1.2,0,2.1-0.9,2.1-2.1
			C41.4,46.3,40.5,45.4,39.4,45.4z"/>
		<g>
			<path class="st0" d="M37.3,52.4c-4,4.3-8.9,6.5-14.4,6.5c-0.2,0-0.3,0-0.5,0c-3.3-0.1-6.4-1-8.9-2.7c-2.5-1.8-4.3-4.3-5.3-7.3
				c-0.2-0.5-0.3-1-0.4-1.5c-0.2-0.8,0.3-1.5,1.1-1.7c0.1,0,0.1,0,0.2,0c0.7,0,1.3,0.5,1.5,1.1c0,0.1,0.1,0.3,0.1,0.4
				c0.3,1.3,0.7,2.4,1.3,3.4c2.3,3.8,6.6,5.4,10.4,5.5c4.9,0.1,9.2-1.8,12.8-5.6c0.5-0.6,1.4-0.6,2-0.1
				C37.9,50.9,37.9,51.8,37.3,52.4z"/>
			<path class="st0" d="M14.7,31.5c-0.7-0.4-6.6-4.2-6.1-11.2c0.5-5.6,4.8-9.4,8.9-10.3c6-1.3,13.2,1.7,15.3,9.9l0.2,0.7
				c1.2,4.8,2.7,10.2,9.5,10.2h0.7c0.8,0,1.4-0.6,1.4-1.4S44,28,43.2,28h-0.7c-4.4,0-5.4-2.9-6.7-8l-0.2-0.7
				C33,9.4,24.2,5.8,16.9,7.3C10.9,8.5,6.3,13.9,5.8,20c-0.5,6.7,3.7,11.6,7.5,13.9c0.2,0.1,0.5,0.2,0.7,0.2c0.5,0,1-0.2,1.2-0.7
				C15.6,32.8,15.4,31.9,14.7,31.5z"/>
			<path class="st0" d="M44.4,38.1c-2.6-3.4-6-5.9-10-7.3c-0.7-0.3-1.6,0.1-1.8,0.9c-0.3,0.7,0.1,1.6,0.9,1.8c3.2,1.2,6,3.1,8.2,5.8
				c-0.4,1.1-0.8,2.1-1.3,3.1c-0.3,0.7,0,1.6,0.7,1.9c0.2,0.1,0.4,0.1,0.6,0.1c0.5,0,1.1-0.3,1.3-0.8c0.6-1.2,1.1-2.6,1.6-3.9
				c0.1-0.2,0.1-0.4,0.1-0.6C44.7,38.7,44.6,38.4,44.4,38.1z"/>
			<path class="st0" d="M30.5,19.5c0.1-1.6-0.6-4.4-2.9-4.8c-2.3-0.4-3,1.1-3.4,2c-0.1,0.1-0.1,0.3-0.2,0.4
				c-0.3,0.5-0.3,0.5-0.8,0.6c-0.1,0-0.8,0-3.7-1.3C17,15.3,14.1,15,13.9,15c-0.6-0.1-1.1,0.3-1.4,0.8c-0.8,1.5-1.4,3.4-0.2,5.8
				c0.7,1.4,1.2,2,1.6,2.4c0.2,0.2,0.3,0.4,0.5,0.6c0.1,0.2,0.4,1,0.4,3c0,0.7,0.3,1.3,0.9,1.8c0.6,0.4,1.3,0.5,2,0.3
				c0.1,0,0.2,0,0.2-0.1c0.5,0.5,1,1,1.4,1.5c0.3,0.4,0.6,0.8,0.7,1.2c0.5,1.2,1.5,2,2.8,2.1c0.1,0,0.2,0,0.2,0c2,0,4.3-1.6,5.6-4
				c1-1.9,1.3-3.8,1.4-5.1c0.1-1.2-0.1-2.4-0.3-3.2c0-0.1,0.1-0.2,0.1-0.3C30.2,21.1,30.4,20.5,30.5,19.5z M27.6,19.4
				c0,0.4-0.1,0.6-0.4,1.3c-0.1,0.2-0.2,0.5-0.4,0.8c-0.2,0.4-0.2,0.9,0,1.2c0.3,0.6,0.7,3.7-0.8,6.4c-0.9,1.7-2.5,2.5-3.2,2.5
				c-0.1,0-0.2,0-0.3-0.2c-0.2-0.6-0.6-1.3-1.1-1.9c-0.8-1-2.3-2.4-2.3-2.4c-0.3-0.2-0.6-0.4-1-0.4c-0.2,0-0.4,0-0.6,0.1
				c-0.1-2.6-0.7-3.4-0.9-3.7c-0.3-0.4-0.5-0.7-0.7-0.9c-0.4-0.4-0.7-0.7-1.2-1.8c-0.4-0.9-0.5-1.5-0.2-2.3c0.9,0.2,2.4,0.5,3.7,1
				c3.3,1.4,4.4,1.6,5.2,1.5c1.7-0.2,2.4-1.1,2.9-2.1l0,0c0.1-0.2,0.2-0.4,0.3-0.5c0.1-0.2,0.2-0.3,0.2-0.5h0.1
				C27.3,17.6,27.7,18.6,27.6,19.4z"/>
			<path class="st0" d="M19.1,22c-0.5,0.1-0.9,0.7-0.7,1.2c0.1,0.5,0.7,0.9,1.2,0.7c0.5-0.1,0.9-0.7,0.7-1.2
				C20.2,22.2,19.7,21.8,19.1,22z"/>
		</g>
		<path class="st0" d="M37.6,41.6c-2.8-2.7-6.6-4.1-10.5-4.1c-3.2,0-5.9,0.6-8.1,1.8c-1.2-2.3-3.6-3.9-6.3-3.9c-3.8,0-7,3.1-7,7
			s3.1,7,7,7h21.2c0.8,0,1.4-0.6,1.4-1.4c0-0.8-0.6-1.4-1.4-1.4H12.8c-2.3,0-4.1-1.8-4.1-4.1s1.8-4.1,4.1-4.1c1.9,0,3.6,1.4,4,3.3
			v0.1c0,0.3,0.1,0.5,0.3,0.8c0.5,0.6,1.4,0.7,2,0.2c1.9-1.5,4.6-2.3,8-2.3c3.2,0,6.2,1.2,8.5,3.4c0.3,0.3,0.6,0.4,1,0.4
			s0.8-0.2,1-0.5C38.2,43.1,38.1,42.2,37.6,41.6z"/>
	</g>
</g>
<g>
	<g>
		<path class="st0" d="M48.9,17c-1.1,1.2-2.5,1.7-4.2,1.7s-3-0.6-4.2-1.7c-1.1-1.2-1.7-2.5-1.7-4.2c0-1.6,0.6-3,1.7-4.2
			c1.2-1.1,2.6-1.7,4.2-1.7s3,0.6,4.2,1.7c1.1,1.1,1.7,2.5,1.7,4.2C50.6,14.4,50.1,15.8,48.9,17z M41.2,9.2c-1,1-1.5,2.2-1.5,3.6
			s0.5,2.6,1.5,3.6s2.2,1.5,3.6,1.5s2.6-0.5,3.6-1.5s1.5-2.2,1.5-3.6s-0.5-2.6-1.5-3.6s-2.2-1.5-3.6-1.5C43.3,7.7,42.2,8.2,41.2,9.2
			z M44.6,9.5c0.8,0,1.4,0.1,1.8,0.2c0.7,0.3,1,0.8,1,1.6c0,0.6-0.2,1-0.6,1.3c-0.2,0.1-0.5,0.2-0.9,0.3c0.5,0.1,0.9,0.3,1.1,0.6
			c0.2,0.3,0.4,0.7,0.4,1V15c0,0.1,0,0.3,0,0.5s0,0.3,0.1,0.3v0.1h-1.1c0,0,0,0,0-0.1c0,0,0,0,0-0.1v-0.2V15c0-0.7-0.2-1.2-0.6-1.5
			c-0.2-0.1-0.7-0.2-1.3-0.2h-0.9v2.5h-1.1V9.5H44.6z M45.9,10.5c-0.3-0.2-0.7-0.2-1.4-0.2h-1v2.3h1c0.5,0,0.8,0,1.1-0.1
			c0.4-0.2,0.7-0.5,0.7-1C46.3,11,46.1,10.7,45.9,10.5z"/>
	</g>
</g>
<g>
	<g>
		<path class="st0" d="M226.9,17c-1.1,1.2-2.5,1.7-4.2,1.7c-1.7,0-3-0.6-4.2-1.7c-1.1-1.2-1.7-2.5-1.7-4.2c0-1.6,0.6-3,1.7-4.2
			c1.2-1.1,2.6-1.7,4.2-1.7c1.6,0,3,0.6,4.2,1.7c1.1,1.1,1.7,2.5,1.7,4.2C228.6,14.4,228.1,15.8,226.9,17z M219.2,9.2
			c-1,1-1.5,2.2-1.5,3.6s0.5,2.6,1.5,3.6s2.2,1.5,3.6,1.5s2.6-0.5,3.6-1.5s1.5-2.2,1.5-3.6s-0.5-2.6-1.5-3.6s-2.2-1.5-3.6-1.5
			C221.3,7.7,220.2,8.2,219.2,9.2z M222.6,9.5c0.8,0,1.4,0.1,1.8,0.2c0.7,0.3,1,0.8,1,1.6c0,0.6-0.2,1-0.6,1.3
			c-0.2,0.1-0.5,0.2-0.9,0.3c0.5,0.1,0.9,0.3,1.1,0.6s0.4,0.7,0.4,1V15c0,0.1,0,0.3,0,0.5s0,0.3,0.1,0.3v0.1h-1.1c0,0,0,0,0-0.1
			c0,0,0,0,0-0.1v-0.2V15c0-0.7-0.2-1.2-0.6-1.5c-0.2-0.1-0.7-0.2-1.3-0.2h-0.9v2.5h-1.1V9.5H222.6z M223.9,10.5
			c-0.3-0.2-0.7-0.2-1.4-0.2h-1v2.3h1c0.5,0,0.8,0,1.1-0.1c0.4-0.2,0.7-0.5,0.7-1S224.1,10.7,223.9,10.5z"/>
	</g>
</g>
<g>
	<polygon class="st0" points="68.1,50.2 64.5,44.1 63.1,44.1 63.1,54.4 64.9,54.4 64.8,48 67.6,52.5 68.7,52.5 71.3,48.1 71.3,54.4 
		73.1,54.4 73.1,44.1 71.7,44.1 	"/>
	<path class="st0" d="M75.9,44.1c-0.6,0-1,0.4-1,1s0.5,1,1,1c0.6,0,1-0.4,1-1C77,44.6,76.5,44.1,75.9,44.1z"/>
	<rect x="75.1" y="47.2" class="st0" width="1.7" height="7.2"/>
	<rect x="78.6" y="43.7" class="st0" width="1.7" height="10.7"/>
	<polygon class="st0" points="89.1,47.2 86.8,47.2 83.7,50.1 83.7,43.7 82,43.7 82,54.4 83.7,54.4 83.7,52.4 84.6,51.5 87.3,54.4 
		89.5,54.4 85.9,50.3 	"/>
	<path class="st0" d="M97.3,44.1l-4.7,10.3h1.9l1.2-2.8h4.5l1.2,2.8h1.9l-4.7-10.3H97.3z M96.5,50l1.5-3.4l1.5,3.4H96.5z"/>
	<path class="st0" d="M107.7,47c-0.7,0-1.4,0.2-2,0.6v-0.4H104v7.2h1.7v-4.8c0.5-0.6,1.2-1,1.9-1c1,0,1.6,0.7,1.6,1.7v4.1h1.7v-4.1
		C110.9,48.3,109.6,47,107.7,47z"/>
	<path class="st0" d="M117.5,47.6c-0.6-0.3-1.2-0.5-2-0.5c-2.1,0-3.7,1.7-3.7,3.8c0,2.1,1.7,3.8,3.7,3.8c0.7,0,1.4-0.2,2-0.5v0.3
		h1.7v-7.2h-1.7V47.6z M115.7,53c-1.2,0-2.1-1-2.1-2.2c0-1.2,1-2.2,2.1-2.2c0.7,0,1.4,0.3,1.8,0.9v2.5C117,52.7,116.4,53,115.7,53z"
		/>
	<rect x="120.8" y="43.7" class="st0" width="1.7" height="10.7"/>
	<polygon class="st0" points="129.6,47.2 127.3,52.4 124.7,47.2 122.9,47.2 126.4,54.4 124.8,57.9 126.6,57.9 131.5,47.2 	"/>
	<path class="st0" d="M135.6,50.1l-1.3-0.2c-1-0.1-1-0.5-1-0.6c0-0.4,0.5-0.7,1.3-0.7c0.6,0,1.4,0.2,1.5,1l0,0.3h1.6l0-0.4
		c-0.1-1.5-1.4-2.4-3.2-2.4c-1.8,0-3,0.9-3,2.3c0,0.8,0.4,1.8,2.2,2.1l1.5,0.3c0.3,0,0.8,0.2,0.8,0.7c0,0.5-0.7,0.8-1.4,0.8
		c-1,0-1.6-0.4-1.8-1.1l-0.1-0.3h-1.6l0.1,0.4c0.2,1.6,1.5,2.5,3.4,2.5c1.8,0,3.1-1,3.1-2.4C137.8,51.4,137.4,50.4,135.6,50.1z"/>
	<path class="st0" d="M140.1,44.1c-0.6,0-1,0.4-1,1s0.5,1,1,1c0.6,0,1-0.4,1-1C141.2,44.6,140.7,44.1,140.1,44.1z"/>
	<rect x="139.3" y="47.2" class="st0" width="1.7" height="7.2"/>
	<path class="st0" d="M146.4,50.1l-1.3-0.2c-1-0.1-1-0.5-1-0.6c0-0.4,0.5-0.7,1.3-0.7c0.6,0,1.4,0.2,1.5,1l0,0.3h1.6l0-0.4
		c-0.1-1.5-1.4-2.4-3.2-2.4c-1.8,0-3,0.9-3,2.3c0,0.8,0.4,1.8,2.2,2.1l1.5,0.3c0.3,0,0.8,0.2,0.8,0.7c0,0.5-0.7,0.8-1.4,0.8
		c-1,0-1.6-0.4-1.8-1.1l-0.1-0.3h-1.6l0.1,0.4c0.2,1.6,1.5,2.5,3.4,2.5c1.8,0,3.1-1,3.1-2.4C148.7,51.4,148.3,50.4,146.4,50.1z"/>
	<path class="st0" d="M157.7,45.6c1.3,0,2.1,0.5,2.3,1.6l0.1,0.3h1.7l-0.1-0.4c-0.2-1.9-1.8-3.1-4.1-3.1c-2.2,0-3.8,1.2-3.8,3.1
		c0,1.5,1,2.5,2.9,2.9l1.7,0.3c1,0.2,1.5,0.6,1.5,1.3c0,0.9-0.8,1.5-2.1,1.5c-1.5,0-2.4-0.7-2.7-2l-0.1-0.3h-1.7l0,0.4
		c0.2,2.2,1.9,3.6,4.3,3.6c2.3,0,3.9-1.3,3.9-3.3c0-1-0.5-2.4-3-2.8l-1.4-0.3c-1.6-0.3-1.6-1-1.6-1.3
		C155.7,45.9,156.7,45.6,157.7,45.6z"/>
	<path class="st0" d="M166.3,47c-2.1,0-3.8,1.7-3.8,3.8c0,2.1,1.7,3.8,3.8,3.8c2.1,0,3.8-1.7,3.8-3.8C170.1,48.7,168.5,47,166.3,47z
		 M166.3,53c-1.2,0-2.1-1-2.1-2.2c0-1.2,0.9-2.1,2.1-2.1s2.1,0.9,2.1,2.1C168.4,52,167.5,53,166.3,53z"/>
	<path class="st0" d="M180.7,52.8c-0.3,0.1-0.7,0.2-1,0.2c-0.7,0-1.1-0.2-1.1-1.3v-2.9h2.5v-1.6h-2.5v-2.4h-1.7v2.4h-3.3v-1.3
		c0-0.7,0.4-1.2,1.1-1.2c0.2,0,0.6,0.1,0.9,0.1l0.4,0.1l0.3-1.5l-0.3-0.1c-0.5-0.1-1-0.2-1.5-0.2c-1.6,0-2.7,1.1-2.7,2.8v1.3h-1.9
		v1.6h1.9v5.6h1.7v-5.6h3.3v2.9c0,1.9,0.9,2.9,2.6,2.9c0.5,0,0.9-0.1,1.5-0.2l0.3-0.1l-0.3-1.6L180.7,52.8z"/>
	<polygon class="st0" points="190.3,47.2 188.8,51.4 187.4,47.2 186,47.2 184.5,51.4 183,47.2 181.2,47.2 183.9,54.4 185.3,54.4 
		186.7,50.3 188.1,54.4 189.5,54.4 192.2,47.2 	"/>
	<path class="st0" d="M197.8,47.6c-0.6-0.3-1.2-0.5-2-0.5c-2.1,0-3.7,1.7-3.7,3.8c0,2.1,1.7,3.8,3.7,3.8c0.7,0,1.4-0.2,2-0.5v0.3
		h1.7v-7.2h-1.7V47.6z M196,53c-1.2,0-2.1-1-2.1-2.2c0-1.2,1-2.2,2.1-2.2c0.7,0,1.4,0.3,1.8,0.9v2.5C197.4,52.7,196.8,53,196,53z"/>
	<path class="st0" d="M202.9,47.8v-0.6h-1.7v7.2h1.7v-4.5c0.5-0.8,1.3-1.2,2.2-1.2l0.4,0V47H205C204.2,47,203.5,47.3,202.9,47.8z"/>
	<path class="st0" d="M212.8,51.8l0.1-0.5c0-0.1,0-0.3,0-0.5c0-2.2-1.5-3.7-3.5-3.7c-2.1,0-3.7,1.6-3.7,3.8c0,2.2,1.6,3.8,3.7,3.8
		c1.6,0,2.9-0.8,3.3-2.1l0.2-0.5H211l-0.1,0.2c-0.2,0.5-0.8,0.8-1.5,0.8c-1,0-1.7-0.6-2-1.5h5L212.8,51.8z M209.3,48.6
		c0.9,0,1.6,0.6,1.8,1.5h-3.7C207.6,49.3,208.3,48.6,209.3,48.6z"/>
</g>
</svg>
