<?xml version="1.0" encoding="utf-8"?>
<!-- Generator: Adobe Illustrator 25.0.1, SVG Export Plug-In . SVG Version: 6.00 Build 0)  -->
<svg version="1.1" id="Layer_1" xmlns="http://www.w3.org/2000/svg" x="0px" y="0px"
     viewBox="0 0 209.52 67.68" style="enable-background:new 0 0 209.52 67.68;" xml:space="preserve">
<style type="text/css">
	.st0{fill:#E503B0;}
</style>
<path class="st0" d="M55.51,56.68h2.8c0.55,0,1,0.16,1.34,0.47c0.34,0.31,0.51,0.75,0.51,1.32c0,0.49-0.15,0.91-0.46,1.27
	c-0.3,0.36-0.77,0.54-1.39,0.54h-1.95v2.64h-0.85V56.68z M58.79,57.54c-0.19-0.09-0.44-0.13-0.76-0.13h-1.67v2.16h1.67
	c0.38,0,0.68-0.08,0.92-0.24c0.23-0.16,0.35-0.45,0.35-0.86C59.3,58.02,59.13,57.71,58.79,57.54z"/>
<path class="st0" d="M61.16,58.38h0.73v0.79c0.06-0.15,0.21-0.34,0.44-0.56c0.23-0.22,0.5-0.33,0.8-0.33c0.01,0,0.04,0,0.07,0
	c0.03,0,0.09,0.01,0.17,0.02v0.81c-0.05-0.01-0.09-0.01-0.13-0.02c-0.04,0-0.08,0-0.12,0c-0.39,0-0.68,0.12-0.89,0.37
	s-0.31,0.53-0.31,0.86v2.62h-0.77V58.38z"/>
<path class="st0" d="M66.85,58.5c0.3,0.15,0.53,0.35,0.69,0.59c0.15,0.23,0.25,0.5,0.3,0.8c0.05,0.21,0.07,0.55,0.07,1H64.6
	c0.01,0.46,0.12,0.84,0.32,1.12c0.2,0.28,0.52,0.42,0.94,0.42c0.4,0,0.71-0.13,0.95-0.4c0.13-0.15,0.23-0.33,0.28-0.53h0.75
	c-0.02,0.17-0.09,0.35-0.2,0.56c-0.11,0.21-0.24,0.37-0.38,0.5c-0.23,0.23-0.52,0.38-0.86,0.46c-0.18,0.05-0.39,0.07-0.62,0.07
	c-0.56,0-1.04-0.21-1.43-0.62c-0.39-0.41-0.59-0.99-0.59-1.73c0-0.73,0.2-1.33,0.59-1.78c0.39-0.46,0.91-0.68,1.55-0.68
	C66.24,58.27,66.55,58.35,66.85,58.5z M67.12,60.29c-0.03-0.33-0.1-0.6-0.21-0.8c-0.21-0.37-0.56-0.55-1.04-0.55
	c-0.35,0-0.64,0.13-0.88,0.38c-0.24,0.25-0.36,0.58-0.38,0.97H67.12z"/>
<path class="st0" d="M69.03,57.1h0.77v1.27h0.73V59h-0.73v2.97c0,0.16,0.05,0.26,0.16,0.32c0.06,0.03,0.16,0.05,0.3,0.05
	c0.04,0,0.08,0,0.12,0c0.04,0,0.09-0.01,0.15-0.01v0.61c-0.09,0.03-0.18,0.04-0.27,0.06C70.17,63,70.06,63,69.95,63
	c-0.36,0-0.6-0.09-0.73-0.27c-0.13-0.18-0.19-0.42-0.19-0.71V59h-0.62v-0.62h0.62V57.1z"/>
<path class="st0" d="M74.12,58.5c0.3,0.15,0.53,0.35,0.69,0.59c0.15,0.23,0.25,0.5,0.3,0.8c0.05,0.21,0.07,0.55,0.07,1h-3.31
	c0.01,0.46,0.12,0.84,0.32,1.12c0.2,0.28,0.52,0.42,0.94,0.42c0.4,0,0.71-0.13,0.95-0.4c0.13-0.15,0.23-0.33,0.28-0.53h0.75
	c-0.02,0.17-0.09,0.35-0.2,0.56c-0.11,0.21-0.24,0.37-0.38,0.5c-0.23,0.23-0.52,0.38-0.86,0.46c-0.18,0.05-0.39,0.07-0.62,0.07
	c-0.56,0-1.04-0.21-1.43-0.62c-0.39-0.41-0.59-0.99-0.59-1.73c0-0.73,0.2-1.33,0.59-1.78c0.39-0.46,0.91-0.68,1.55-0.68
	C73.5,58.27,73.81,58.35,74.12,58.5z M74.39,60.29c-0.03-0.33-0.1-0.6-0.21-0.8c-0.21-0.37-0.56-0.55-1.04-0.55
	c-0.35,0-0.64,0.13-0.88,0.38c-0.24,0.25-0.36,0.58-0.38,0.97H74.39z"/>
<path class="st0" d="M76.17,58.38h0.73v0.79c0.06-0.15,0.21-0.34,0.44-0.56c0.23-0.22,0.5-0.33,0.8-0.33c0.01,0,0.04,0,0.07,0
	c0.03,0,0.09,0.01,0.17,0.02v0.81c-0.05-0.01-0.09-0.01-0.13-0.02c-0.04,0-0.08,0-0.12,0c-0.39,0-0.68,0.12-0.89,0.37
	c-0.21,0.25-0.31,0.53-0.31,0.86v2.62h-0.77V58.38z"/>
<path class="st0" d="M79.05,58.38h0.76v0.65c0.18-0.22,0.35-0.39,0.49-0.49c0.25-0.17,0.54-0.26,0.86-0.26
	c0.36,0,0.66,0.09,0.88,0.27c0.12,0.1,0.24,0.25,0.34,0.45c0.17-0.24,0.37-0.43,0.6-0.54c0.23-0.12,0.49-0.18,0.77-0.18
	c0.61,0,1.03,0.22,1.25,0.66c0.12,0.24,0.18,0.56,0.18,0.96v3.03h-0.8v-3.17c0-0.3-0.08-0.51-0.23-0.62
	c-0.15-0.11-0.34-0.17-0.55-0.17c-0.3,0-0.56,0.1-0.78,0.3c-0.22,0.2-0.33,0.54-0.33,1.01v2.65h-0.78v-2.97
	c0-0.31-0.04-0.53-0.11-0.68c-0.12-0.21-0.33-0.32-0.65-0.32c-0.29,0-0.55,0.11-0.79,0.34c-0.24,0.22-0.35,0.63-0.35,1.22v2.42
	h-0.77V58.38z"/>
<path class="st0" d="M88.91,56.68h4.34v0.77h-3.49v1.9h3.07v0.74h-3.07v2.84h-0.85V56.68z"/>
<path class="st0" d="M96.86,58.5c0.3,0.15,0.53,0.35,0.69,0.59c0.15,0.23,0.25,0.5,0.3,0.8c0.05,0.21,0.07,0.55,0.07,1h-3.31
	c0.01,0.46,0.12,0.84,0.32,1.12c0.2,0.28,0.52,0.42,0.94,0.42c0.4,0,0.71-0.13,0.95-0.4c0.13-0.15,0.23-0.33,0.28-0.53h0.75
	c-0.02,0.17-0.09,0.35-0.2,0.56c-0.11,0.21-0.24,0.37-0.38,0.5c-0.23,0.23-0.52,0.38-0.86,0.46c-0.18,0.05-0.39,0.07-0.62,0.07
	c-0.56,0-1.04-0.21-1.43-0.62c-0.39-0.41-0.59-0.99-0.59-1.73c0-0.73,0.2-1.33,0.59-1.78c0.39-0.46,0.91-0.68,1.55-0.68
	C96.25,58.27,96.56,58.35,96.86,58.5z M97.14,60.29c-0.03-0.33-0.1-0.6-0.21-0.8c-0.21-0.37-0.56-0.55-1.04-0.55
	c-0.35,0-0.64,0.13-0.88,0.38c-0.24,0.25-0.36,0.58-0.38,0.97H97.14z"/>
<path class="st0" d="M101.71,58.5c0.3,0.15,0.53,0.35,0.69,0.59c0.15,0.23,0.25,0.5,0.3,0.8c0.05,0.21,0.07,0.55,0.07,1h-3.31
	c0.01,0.46,0.12,0.84,0.32,1.12c0.2,0.28,0.52,0.42,0.94,0.42c0.4,0,0.71-0.13,0.95-0.4c0.13-0.15,0.23-0.33,0.28-0.53h0.75
	c-0.02,0.17-0.09,0.35-0.2,0.56c-0.11,0.21-0.24,0.37-0.38,0.5c-0.23,0.23-0.52,0.38-0.86,0.46c-0.18,0.05-0.39,0.07-0.62,0.07
	c-0.56,0-1.04-0.21-1.43-0.62c-0.39-0.41-0.59-0.99-0.59-1.73c0-0.73,0.2-1.33,0.59-1.78c0.39-0.46,0.91-0.68,1.55-0.68
	C101.09,58.27,101.4,58.35,101.71,58.5z M101.98,60.29c-0.03-0.33-0.1-0.6-0.21-0.8c-0.21-0.37-0.56-0.55-1.04-0.55
	c-0.35,0-0.64,0.13-0.88,0.38c-0.24,0.25-0.36,0.58-0.38,0.97H101.98z"/>
<path class="st0" d="M106.24,58.52c0.14,0.09,0.29,0.23,0.46,0.45v-2.3h0.74v6.27h-0.69V62.3c-0.18,0.28-0.39,0.48-0.63,0.61
	c-0.24,0.12-0.52,0.19-0.84,0.19c-0.51,0-0.94-0.21-1.31-0.64c-0.37-0.43-0.56-0.99-0.56-1.7c0-0.66,0.17-1.24,0.51-1.72
	c0.34-0.49,0.82-0.73,1.45-0.73C105.71,58.3,106.01,58.37,106.24,58.52z M104.53,61.93c0.21,0.33,0.54,0.49,0.99,0.49
	c0.35,0,0.64-0.15,0.87-0.46c0.23-0.3,0.34-0.74,0.34-1.31c0-0.58-0.12-1-0.35-1.28c-0.23-0.28-0.52-0.41-0.87-0.41
	c-0.38,0-0.7,0.15-0.93,0.44c-0.24,0.3-0.36,0.73-0.36,1.3C104.22,61.19,104.33,61.6,104.53,61.93z"/>
<path class="st0" d="M108.58,56.68h0.78v0.87h-0.78V56.68z M108.58,58.4h0.78v4.53h-0.78V58.4z"/>
<path class="st0" d="M110.52,58.38h0.73v0.65c0.22-0.27,0.44-0.46,0.69-0.57c0.24-0.12,0.51-0.17,0.8-0.17
	c0.65,0,1.08,0.23,1.31,0.68c0.12,0.25,0.19,0.6,0.19,1.06v2.92h-0.78v-2.87c0-0.28-0.04-0.5-0.12-0.67
	c-0.14-0.28-0.38-0.43-0.74-0.43c-0.18,0-0.33,0.02-0.45,0.06c-0.21,0.06-0.39,0.19-0.55,0.37c-0.13,0.15-0.21,0.31-0.25,0.47
	c-0.04,0.16-0.06,0.39-0.06,0.69v2.39h-0.77V58.38z"/>
<path class="st0" d="M117.9,58.56c0.14,0.1,0.29,0.24,0.44,0.43v-0.57h0.71v4.14c0,0.58-0.09,1.04-0.25,1.37
	c-0.32,0.62-0.91,0.93-1.79,0.93c-0.49,0-0.9-0.11-1.23-0.33c-0.33-0.22-0.52-0.56-0.56-1.03h0.78c0.04,0.2,0.11,0.36,0.22,0.47
	c0.17,0.17,0.44,0.26,0.81,0.26c0.58,0,0.97-0.21,1.15-0.62c0.11-0.24,0.16-0.68,0.15-1.31c-0.15,0.23-0.34,0.41-0.55,0.52
	c-0.21,0.11-0.5,0.17-0.85,0.17c-0.49,0-0.92-0.17-1.29-0.53c-0.37-0.35-0.55-0.93-0.55-1.74c0-0.76,0.19-1.36,0.56-1.79
	c0.37-0.43,0.82-0.64,1.34-0.64C117.32,58.3,117.63,58.38,117.9,58.56z M117.99,59.38c-0.23-0.27-0.53-0.41-0.88-0.41
	c-0.54,0-0.9,0.25-1.1,0.76c-0.1,0.27-0.16,0.62-0.16,1.06c0,0.51,0.1,0.9,0.31,1.17c0.21,0.27,0.49,0.4,0.84,0.4
	c0.55,0,0.93-0.25,1.16-0.74c0.12-0.28,0.19-0.61,0.19-0.98C118.34,60.07,118.22,59.65,117.99,59.38z"/>
<path class="st0" d="M122.71,56.68h1.21l1.8,5.28l1.78-5.28h1.2v6.25h-0.81v-3.69c0-0.13,0-0.34,0.01-0.63
	c0.01-0.29,0.01-0.61,0.01-0.95l-1.78,5.27h-0.84l-1.8-5.27v0.19c0,0.15,0,0.39,0.01,0.7c0.01,0.31,0.01,0.54,0.01,0.69v3.69h-0.81
	V56.68z"/>
<path class="st0" d="M132.33,60.17c0.18-0.02,0.29-0.1,0.35-0.22c0.03-0.07,0.05-0.17,0.05-0.29c0-0.26-0.09-0.45-0.28-0.57
	c-0.19-0.12-0.45-0.18-0.8-0.18c-0.4,0-0.68,0.11-0.85,0.32c-0.09,0.12-0.15,0.3-0.18,0.53h-0.71c0.01-0.56,0.2-0.96,0.55-1.18
	c0.35-0.22,0.76-0.33,1.22-0.33c0.54,0,0.97,0.1,1.3,0.31c0.33,0.2,0.5,0.52,0.5,0.95v2.62c0,0.08,0.02,0.14,0.05,0.19
	c0.03,0.05,0.1,0.07,0.21,0.07c0.03,0,0.07,0,0.12-0.01c0.04,0,0.09-0.01,0.14-0.02v0.57c-0.12,0.03-0.21,0.06-0.27,0.06
	c-0.06,0.01-0.15,0.01-0.26,0.01c-0.26,0-0.45-0.09-0.57-0.28c-0.06-0.1-0.11-0.24-0.13-0.42c-0.16,0.21-0.38,0.38-0.67,0.53
	c-0.29,0.15-0.61,0.23-0.97,0.23c-0.42,0-0.77-0.13-1.04-0.38c-0.27-0.26-0.4-0.58-0.4-0.96c0-0.42,0.13-0.75,0.4-0.98
	c0.26-0.23,0.61-0.38,1.04-0.43L132.33,60.17z M130.72,62.24c0.16,0.13,0.35,0.19,0.57,0.19c0.27,0,0.53-0.06,0.78-0.19
	c0.43-0.21,0.64-0.55,0.64-1.02v-0.62c-0.09,0.06-0.21,0.11-0.36,0.15c-0.15,0.04-0.29,0.07-0.43,0.09l-0.46,0.06
	c-0.28,0.04-0.49,0.09-0.63,0.17c-0.24,0.13-0.35,0.35-0.35,0.64C130.47,61.94,130.55,62.12,130.72,62.24z"/>
<path class="st0" d="M134.73,58.38h0.73v0.65c0.22-0.27,0.44-0.46,0.69-0.57c0.24-0.12,0.51-0.17,0.8-0.17
	c0.65,0,1.08,0.23,1.31,0.68c0.12,0.25,0.19,0.6,0.19,1.06v2.92h-0.78v-2.87c0-0.28-0.04-0.5-0.12-0.67
	c-0.14-0.28-0.38-0.43-0.74-0.43c-0.18,0-0.33,0.02-0.45,0.06c-0.21,0.06-0.39,0.19-0.55,0.37c-0.13,0.15-0.21,0.31-0.25,0.47
	c-0.04,0.16-0.06,0.39-0.06,0.69v2.39h-0.77V58.38z"/>
<path class="st0" d="M142.02,60.17c0.18-0.02,0.29-0.1,0.35-0.22c0.03-0.07,0.05-0.17,0.05-0.29c0-0.26-0.09-0.45-0.28-0.57
	c-0.19-0.12-0.45-0.18-0.8-0.18c-0.4,0-0.68,0.11-0.85,0.32c-0.09,0.12-0.15,0.3-0.18,0.53h-0.71c0.01-0.56,0.2-0.96,0.55-1.18
	c0.35-0.22,0.76-0.33,1.22-0.33c0.54,0,0.97,0.1,1.3,0.31c0.33,0.2,0.5,0.52,0.5,0.95v2.62c0,0.08,0.02,0.14,0.05,0.19
	c0.03,0.05,0.1,0.07,0.21,0.07c0.03,0,0.07,0,0.12-0.01c0.04,0,0.09-0.01,0.14-0.02v0.57c-0.12,0.03-0.21,0.06-0.27,0.06
	c-0.06,0.01-0.15,0.01-0.26,0.01c-0.26,0-0.45-0.09-0.57-0.28c-0.06-0.1-0.11-0.24-0.13-0.42c-0.16,0.21-0.38,0.38-0.67,0.53
	c-0.29,0.15-0.61,0.23-0.97,0.23c-0.42,0-0.77-0.13-1.04-0.38c-0.27-0.26-0.4-0.58-0.4-0.96c0-0.42,0.13-0.75,0.4-0.98
	c0.26-0.23,0.61-0.38,1.04-0.43L142.02,60.17z M140.41,62.24c0.16,0.13,0.35,0.19,0.57,0.19c0.27,0,0.53-0.06,0.78-0.19
	c0.43-0.21,0.64-0.55,0.64-1.02v-0.62c-0.09,0.06-0.21,0.11-0.36,0.15c-0.15,0.04-0.29,0.07-0.43,0.09l-0.46,0.06
	c-0.28,0.04-0.49,0.09-0.63,0.17c-0.24,0.13-0.35,0.35-0.35,0.64C140.16,61.94,140.25,62.12,140.41,62.24z"/>
<path class="st0" d="M146.95,58.56c0.14,0.1,0.29,0.24,0.44,0.43v-0.57h0.71v4.14c0,0.58-0.09,1.04-0.25,1.37
	c-0.32,0.62-0.91,0.93-1.79,0.93c-0.49,0-0.9-0.11-1.23-0.33c-0.33-0.22-0.52-0.56-0.56-1.03h0.78c0.04,0.2,0.11,0.36,0.22,0.47
	c0.17,0.17,0.44,0.26,0.81,0.26c0.58,0,0.97-0.21,1.15-0.62c0.11-0.24,0.16-0.68,0.15-1.31c-0.15,0.23-0.34,0.41-0.55,0.52
	c-0.21,0.11-0.5,0.17-0.85,0.17c-0.49,0-0.92-0.17-1.29-0.53c-0.37-0.35-0.55-0.93-0.55-1.74c0-0.76,0.19-1.36,0.56-1.79
	c0.37-0.43,0.82-0.64,1.34-0.64C146.38,58.3,146.69,58.38,146.95,58.56z M147.05,59.38c-0.23-0.27-0.53-0.41-0.88-0.41
	c-0.54,0-0.9,0.25-1.1,0.76c-0.1,0.27-0.16,0.62-0.16,1.06c0,0.51,0.1,0.9,0.31,1.17c0.21,0.27,0.49,0.4,0.84,0.4
	c0.55,0,0.93-0.25,1.16-0.74c0.12-0.28,0.19-0.61,0.19-0.98C147.39,60.07,147.28,59.65,147.05,59.38z"/>
<path class="st0" d="M152.08,58.5c0.3,0.15,0.53,0.35,0.69,0.59c0.15,0.23,0.25,0.5,0.3,0.8c0.05,0.21,0.07,0.55,0.07,1h-3.31
	c0.01,0.46,0.12,0.84,0.32,1.12c0.2,0.28,0.52,0.42,0.94,0.42c0.4,0,0.71-0.13,0.95-0.4c0.13-0.15,0.23-0.33,0.28-0.53h0.75
	c-0.02,0.17-0.09,0.35-0.2,0.56c-0.11,0.21-0.24,0.37-0.38,0.5c-0.23,0.23-0.52,0.38-0.86,0.46c-0.18,0.05-0.39,0.07-0.62,0.07
	c-0.56,0-1.04-0.21-1.43-0.62c-0.39-0.41-0.59-0.99-0.59-1.73c0-0.73,0.2-1.33,0.59-1.78c0.39-0.46,0.91-0.68,1.55-0.68
	C151.47,58.27,151.78,58.35,152.08,58.5z M152.36,60.29c-0.03-0.33-0.1-0.6-0.21-0.8c-0.21-0.37-0.56-0.55-1.04-0.55
	c-0.35,0-0.64,0.13-0.88,0.38c-0.24,0.25-0.36,0.58-0.38,0.97H152.36z"/>
<path class="st0" d="M154.11,58.38h0.76v0.65c0.18-0.22,0.35-0.39,0.49-0.49c0.25-0.17,0.54-0.26,0.86-0.26
	c0.36,0,0.66,0.09,0.88,0.27c0.12,0.1,0.24,0.25,0.34,0.45c0.17-0.24,0.37-0.43,0.6-0.54c0.23-0.12,0.49-0.18,0.77-0.18
	c0.61,0,1.03,0.22,1.25,0.66c0.12,0.24,0.18,0.56,0.18,0.96v3.03h-0.8v-3.17c0-0.3-0.08-0.51-0.23-0.62
	c-0.15-0.11-0.34-0.17-0.55-0.17c-0.3,0-0.56,0.1-0.78,0.3c-0.22,0.2-0.33,0.54-0.33,1.01v2.65h-0.78v-2.97
	c0-0.31-0.04-0.53-0.11-0.68c-0.12-0.21-0.33-0.32-0.65-0.32c-0.29,0-0.55,0.11-0.79,0.34c-0.24,0.22-0.35,0.63-0.35,1.22v2.42
	h-0.77V58.38z"/>
<path class="st0" d="M164.18,58.5c0.3,0.15,0.53,0.35,0.69,0.59c0.15,0.23,0.25,0.5,0.3,0.8c0.05,0.21,0.07,0.55,0.07,1h-3.31
	c0.01,0.46,0.12,0.84,0.32,1.12c0.2,0.28,0.52,0.42,0.94,0.42c0.4,0,0.71-0.13,0.95-0.4c0.13-0.15,0.23-0.33,0.28-0.53h0.75
	c-0.02,0.17-0.09,0.35-0.2,0.56c-0.11,0.21-0.24,0.37-0.38,0.5c-0.23,0.23-0.52,0.38-0.86,0.46c-0.18,0.05-0.39,0.07-0.62,0.07
	c-0.56,0-1.04-0.21-1.43-0.62c-0.39-0.41-0.59-0.99-0.59-1.73c0-0.73,0.2-1.33,0.59-1.78c0.39-0.46,0.91-0.68,1.55-0.68
	C163.57,58.27,163.88,58.35,164.18,58.5z M164.46,60.29c-0.03-0.33-0.1-0.6-0.21-0.8c-0.21-0.37-0.56-0.55-1.04-0.55
	c-0.35,0-0.64,0.13-0.88,0.38c-0.24,0.25-0.36,0.58-0.38,0.97H164.46z"/>
<path class="st0" d="M166.22,58.38h0.73v0.65c0.22-0.27,0.44-0.46,0.69-0.57c0.24-0.12,0.51-0.17,0.8-0.17
	c0.65,0,1.08,0.23,1.31,0.68c0.12,0.25,0.19,0.6,0.19,1.06v2.92h-0.78v-2.87c0-0.28-0.04-0.5-0.12-0.67
	c-0.14-0.28-0.38-0.43-0.74-0.43c-0.18,0-0.33,0.02-0.45,0.06c-0.21,0.06-0.39,0.19-0.55,0.37c-0.13,0.15-0.21,0.31-0.25,0.47
	c-0.04,0.16-0.06,0.39-0.06,0.69v2.39h-0.77V58.38z"/>
<path class="st0" d="M171.21,57.1h0.77v1.27h0.73V59h-0.73v2.97c0,0.16,0.05,0.26,0.16,0.32c0.06,0.03,0.16,0.05,0.3,0.05
	c0.04,0,0.08,0,0.12,0c0.04,0,0.09-0.01,0.15-0.01v0.61c-0.09,0.03-0.18,0.04-0.27,0.06c-0.1,0.01-0.2,0.02-0.31,0.02
	c-0.36,0-0.6-0.09-0.73-0.27c-0.13-0.18-0.19-0.42-0.19-0.71V59h-0.62v-0.62h0.62V57.1z"/>
<path class="st0" d="M176.56,60.92c0.02,0.35,0.1,0.64,0.24,0.86c0.27,0.41,0.75,0.62,1.43,0.62c0.31,0,0.58-0.05,0.84-0.14
	c0.49-0.18,0.73-0.49,0.73-0.94c0-0.34-0.1-0.58-0.31-0.73c-0.21-0.14-0.54-0.26-0.98-0.37l-0.82-0.19
	c-0.54-0.12-0.91-0.26-1.14-0.41c-0.38-0.26-0.58-0.65-0.58-1.17c0-0.56,0.19-1.02,0.57-1.38c0.38-0.36,0.91-0.54,1.61-0.54
	c0.64,0,1.18,0.16,1.63,0.47c0.45,0.32,0.67,0.82,0.67,1.52h-0.8c-0.04-0.33-0.13-0.59-0.26-0.77c-0.25-0.33-0.67-0.49-1.26-0.49
	c-0.48,0-0.82,0.11-1.03,0.32c-0.21,0.21-0.31,0.45-0.31,0.73c0,0.31,0.12,0.53,0.37,0.67c0.16,0.09,0.53,0.2,1.1,0.34l0.85,0.2
	c0.41,0.1,0.73,0.23,0.95,0.4c0.38,0.29,0.58,0.72,0.58,1.27c0,0.69-0.24,1.19-0.74,1.48c-0.49,0.3-1.06,0.45-1.71,0.45
	c-0.76,0-1.35-0.2-1.78-0.6c-0.43-0.39-0.64-0.93-0.63-1.6H176.56z"/>
<path class="st0" d="M184.56,58.38h0.85c-0.11,0.29-0.35,0.96-0.72,2c-0.28,0.78-0.51,1.42-0.7,1.91c-0.44,1.16-0.75,1.87-0.93,2.13
	c-0.18,0.26-0.49,0.38-0.93,0.38c-0.11,0-0.19,0-0.25-0.01c-0.06-0.01-0.13-0.02-0.21-0.05v-0.7c0.13,0.04,0.23,0.06,0.29,0.07
	c0.06,0.01,0.11,0.01,0.16,0.01c0.14,0,0.25-0.02,0.31-0.07c0.07-0.05,0.12-0.1,0.17-0.17c0.01-0.02,0.07-0.14,0.15-0.35
	c0.09-0.21,0.15-0.37,0.19-0.47l-1.68-4.69h0.87l1.22,3.71L184.56,58.38z"/>
<path class="st0" d="M186.52,61.5c0.02,0.26,0.09,0.45,0.2,0.59c0.2,0.25,0.54,0.37,1.02,0.37c0.29,0,0.54-0.06,0.76-0.19
	c0.22-0.12,0.33-0.31,0.33-0.57c0-0.2-0.09-0.34-0.26-0.45c-0.11-0.06-0.33-0.13-0.67-0.22l-0.62-0.15c-0.39-0.1-0.69-0.2-0.87-0.32
	c-0.33-0.21-0.5-0.49-0.5-0.86c0-0.43,0.16-0.78,0.47-1.05c0.31-0.27,0.74-0.4,1.27-0.4c0.7,0,1.2,0.2,1.5,0.6
	c0.19,0.26,0.29,0.53,0.28,0.83h-0.72c-0.01-0.17-0.08-0.33-0.19-0.47c-0.18-0.2-0.49-0.3-0.94-0.3c-0.3,0-0.52,0.06-0.67,0.17
	c-0.15,0.11-0.23,0.26-0.23,0.44c0,0.2,0.1,0.36,0.3,0.47c0.12,0.07,0.29,0.13,0.51,0.19l0.52,0.12c0.56,0.13,0.94,0.26,1.13,0.39
	c0.3,0.2,0.45,0.5,0.45,0.92c0,0.41-0.16,0.76-0.47,1.05c-0.31,0.29-0.79,0.44-1.42,0.44c-0.69,0-1.17-0.15-1.46-0.46
	c-0.29-0.31-0.44-0.69-0.46-1.14H186.52z"/>
<path class="st0" d="M190.58,57.1h0.77v1.27h0.73V59h-0.73v2.97c0,0.16,0.05,0.26,0.16,0.32c0.06,0.03,0.16,0.05,0.3,0.05
	c0.04,0,0.08,0,0.12,0c0.04,0,0.09-0.01,0.15-0.01v0.61c-0.09,0.03-0.18,0.04-0.27,0.06c-0.1,0.01-0.2,0.02-0.31,0.02
	c-0.36,0-0.6-0.09-0.73-0.27c-0.13-0.18-0.19-0.42-0.19-0.71V59h-0.62v-0.62h0.62V57.1z"/>
<path class="st0" d="M195.66,58.5c0.3,0.15,0.53,0.35,0.69,0.59c0.15,0.23,0.25,0.5,0.3,0.8c0.05,0.21,0.07,0.55,0.07,1h-3.31
	c0.01,0.46,0.12,0.84,0.32,1.12c0.2,0.28,0.52,0.42,0.94,0.42c0.4,0,0.71-0.13,0.95-0.4c0.13-0.15,0.23-0.33,0.28-0.53h0.75
	c-0.02,0.17-0.09,0.35-0.2,0.56c-0.11,0.21-0.24,0.37-0.38,0.5c-0.23,0.23-0.52,0.38-0.86,0.46c-0.18,0.05-0.39,0.07-0.62,0.07
	c-0.56,0-1.04-0.21-1.43-0.62c-0.39-0.41-0.59-0.99-0.59-1.73c0-0.73,0.2-1.33,0.59-1.78c0.39-0.46,0.91-0.68,1.55-0.68
	C195.05,58.27,195.36,58.35,195.66,58.5z M195.93,60.29c-0.03-0.33-0.1-0.6-0.21-0.8c-0.21-0.37-0.56-0.55-1.04-0.55
	c-0.35,0-0.64,0.13-0.88,0.38c-0.24,0.25-0.36,0.58-0.38,0.97H195.93z"/>
<path class="st0" d="M197.69,58.38h0.76v0.65c0.18-0.22,0.35-0.39,0.49-0.49c0.25-0.17,0.54-0.26,0.86-0.26
	c0.36,0,0.66,0.09,0.88,0.27c0.12,0.1,0.24,0.25,0.34,0.45c0.17-0.24,0.37-0.43,0.6-0.54c0.23-0.12,0.49-0.18,0.77-0.18
	c0.61,0,1.03,0.22,1.25,0.66c0.12,0.24,0.18,0.56,0.18,0.96v3.03h-0.8v-3.17c0-0.3-0.08-0.51-0.23-0.62
	c-0.15-0.11-0.34-0.17-0.56-0.17c-0.3,0-0.56,0.1-0.78,0.3c-0.22,0.2-0.33,0.54-0.33,1.01v2.65h-0.78v-2.97
	c0-0.31-0.04-0.53-0.11-0.68c-0.12-0.21-0.33-0.32-0.65-0.32c-0.29,0-0.55,0.11-0.79,0.34c-0.24,0.22-0.35,0.63-0.35,1.22v2.42
	h-0.77V58.38z"/>
<path class="st0" d="M203.54,22.99c0.42,0,0.77-0.34,0.77-0.77v-2.34c0-0.42-0.34-0.77-0.77-0.77h-17.02
	c-0.42,0-0.77,0.34-0.77,0.77V44.4c0,0.42,0.34,0.77,0.77,0.77h17.02c0.42,0,0.77-0.34,0.77-0.77v-2.34c0-0.42-0.34-0.77-0.77-0.77
	h-13.69v-7.12h12.25c0.42,0,0.77-0.34,0.77-0.77v-2.38c0-0.42-0.34-0.77-0.77-0.77h-12.25v-7.26H203.54z"/>
<path class="st0" d="M141.77,19.11h-17.02c-0.42,0-0.77,0.34-0.77,0.77v5.85h4.1v-2.74h13.69c0.42,0,0.77-0.34,0.77-0.77v-2.34
	C142.54,19.45,142.19,19.11,141.77,19.11z"/>
<path class="st0" d="M141.77,41.29h-13.69v-7.12h12.25c0.42,0,0.77-0.34,0.77-0.77v-2.38c0-0.42-0.34-0.77-0.77-0.77h-12.25v-1.67
	h-4.1V44.4c0,0.42,0.34,0.77,0.77,0.77h17.02c0.42,0,0.77-0.34,0.77-0.77v-2.34C142.54,41.63,142.19,41.29,141.77,41.29z"/>
<path class="st0" d="M179.99,19.11h-2.56c-0.42,0-0.77,0.34-0.77,0.77v5.85h4.1v-5.85C180.76,19.45,180.42,19.11,179.99,19.11z"/>
<path class="st0" d="M176.66,44.4c0,0.42,0.34,0.77,0.77,0.77h2.56c0.42,0,0.77-0.34,0.77-0.77V28.58h-4.1V44.4z"/>
<path class="st0" d="M65,19.11h-8.55c-0.42,0-0.77,0.34-0.77,0.77v5.85h4.1v-2.74h5.11c3.76,0,6.19,1.96,6.19,5
	c0,3.17-2.43,5.22-6.19,5.22h-5.11v-4.63h-4.1V44.4c0,0.42,0.34,0.77,0.77,0.77h2.56c0.42,0,0.77-0.34,0.77-0.77v-7.31h4.89
	c6.26,0,10.47-3.66,10.47-9.1C75.14,22.68,71.06,19.11,65,19.11z"/>
<path class="st0" d="M98.86,43.9l-7.05-8.18c3.53-1.09,5.78-3.71,6.11-7.14h-4.14c-0.45,2.33-2.7,3.8-6,3.8h-5.72v-3.8v-2.85v-2.74
	h5.72c2.76,0,4.78,1.03,5.64,2.74h4.33c-0.91-4.03-4.66-6.62-9.89-6.62h-9.12c-0.42,0-0.77,0.34-0.77,0.77v2.67v3.18v2.85v3.96V44.4
	c0,0.42,0.34,0.77,0.77,0.77h2.56c0.42,0,0.77-0.34,0.77-0.77v-8.14h4.97l7.45,8.64c0.15,0.17,0.36,0.27,0.58,0.27h3.21
	c0.3,0,0.57-0.18,0.7-0.45C99.1,44.45,99.06,44.13,98.86,43.9z"/>
<path class="st0" d="M119.34,22.99c0.42,0,0.77-0.34,0.77-0.77v-2.34c0-0.42-0.34-0.77-0.77-0.77h-17.02
	c-0.42,0-0.77,0.34-0.77,0.77v5.85l0,0v2.85l0,0V44.4c0,0.42,0.34,0.77,0.77,0.77h17.02c0.42,0,0.77-0.34,0.77-0.77v-2.34
	c0-0.42-0.34-0.77-0.77-0.77h-13.69v-7.12h12.25c0.42,0,0.77-0.34,0.77-0.77v-2.38c0-0.42-0.34-0.77-0.77-0.77h-12.25v-7.03h0v-0.23
	H119.34z"/>
<path class="st0" d="M170.87,19.11h-1.95c-0.27,0-0.52,0.14-0.66,0.38l-5.42,9.1l0,0l-3.8,6.38l-9.22-15.48
	c-0.03-0.06-0.08-0.11-0.12-0.16c-0.14-0.14-0.33-0.22-0.54-0.22h-1.98c-0.42,0-0.77,0.34-0.77,0.77v5.85v2.85V44.4
	c0,0.21,0.09,0.4,0.23,0.54c0.14,0.14,0.33,0.23,0.54,0.23h2.56c0.2,0,0.4-0.08,0.54-0.23c0.14-0.14,0.22-0.34,0.22-0.55
	l-0.06-16.21l0.24,0.39l6.83,11.38c0.03,0.06,0.08,0.11,0.12,0.16c0.14,0.14,0.33,0.22,0.54,0.22h1.73c0.27,0,0.52-0.14,0.66-0.37
	l7-11.67l-0.03,16.11c0,0.2,0.08,0.4,0.22,0.54c0.14,0.14,0.34,0.23,0.54,0.23h2.56c0.42,0,0.77-0.34,0.77-0.77V19.88
	C171.64,19.45,171.29,19.11,170.87,19.11z"/>
<path class="st0" d="M39.26,43.47c-1.15,0-2.08,0.93-2.08,2.08s0.93,2.08,2.08,2.08c1.15,0,2.08-0.93,2.08-2.08
	S40.41,43.47,39.26,43.47z"/>
<path class="st0" d="M37.25,50.49c-4.02,4.3-8.88,6.48-14.45,6.48c-0.16,0-0.33,0-0.49-0.01c-3.26-0.07-6.41-1.03-8.87-2.7
	c-2.56-1.74-4.38-4.22-5.3-7.24c-0.15-0.5-0.28-1.01-0.39-1.54C7.6,44.7,8.1,43.95,8.87,43.8c0.07-0.01,0.15-0.02,0.22-0.03
	c0.69-0.03,1.32,0.45,1.45,1.15c0.02,0.13,0.05,0.25,0.08,0.37c0.29,1.27,0.75,2.39,1.33,3.35c2.31,3.83,6.61,5.37,10.42,5.45
	c4.94,0.11,9.23-1.76,12.79-5.57c0.54-0.57,1.44-0.61,2.02-0.07C37.75,49.01,37.78,49.91,37.25,50.49z"/>
<path class="st0" d="M14.64,29.57c-0.67-0.41-6.58-4.21-6.07-11.23c0.4-5.56,4.76-9.34,8.85-10.21c5.98-1.27,13.17,1.73,15.33,9.93
	l0.17,0.65c1.24,4.77,2.66,10.17,9.48,10.17h0.72c0.79,0,1.43-0.64,1.43-1.43c0-0.79-0.64-1.43-1.43-1.43h-0.72
	c-4.41,0-5.38-2.9-6.72-8.04l-0.17-0.66C32.9,7.42,24.14,3.8,16.83,5.35C10.84,6.62,6.17,12,5.72,18.14
	c-0.48,6.61,3.7,11.61,7.43,13.87c0.23,0.14,0.49,0.21,0.74,0.21c0.48,0,0.95-0.24,1.22-0.69C15.52,30.86,15.31,29.98,14.64,29.57z"
	/>
<path class="st0" d="M44.32,36.21c-2.55-3.36-6-5.89-9.95-7.31c-0.74-0.26-1.56,0.12-1.82,0.86c-0.27,0.74,0.12,1.56,0.86,1.82
	c3.21,1.15,6.04,3.15,8.21,5.79c-0.39,1.07-0.81,2.11-1.25,3.08c-0.32,0.72-0.01,1.56,0.71,1.89c0.19,0.09,0.39,0.13,0.59,0.13
	c0.54,0,1.06-0.31,1.3-0.84c0.56-1.24,1.09-2.57,1.57-3.95c0.07-0.19,0.09-0.39,0.07-0.58C44.61,36.79,44.52,36.48,44.32,36.21z"/>
<path class="st0" d="M30.4,17.63c0.1-1.63-0.61-4.36-2.92-4.76c-2.27-0.4-3,1.11-3.44,2.01c-0.07,0.14-0.14,0.28-0.22,0.43
	c-0.26,0.49-0.3,0.52-0.77,0.57c-0.11,0.01-0.84-0.02-3.7-1.26c-2.52-1.09-5.45-1.37-5.57-1.38c-0.58-0.05-1.14,0.25-1.4,0.77
	c-0.77,1.51-1.39,3.38-0.17,5.77c0.72,1.42,1.21,1.96,1.64,2.43c0.18,0.2,0.33,0.37,0.5,0.61c0.11,0.16,0.4,1.02,0.41,3.03
	c0,0.7,0.33,1.35,0.91,1.77c0.58,0.42,1.31,0.55,1.95,0.34c0.07-0.02,0.15-0.05,0.23-0.08c0.46,0.45,1.02,1.02,1.36,1.46
	c0.31,0.39,0.57,0.83,0.71,1.17c0.47,1.22,1.47,1.97,2.75,2.05c0.08,0.01,0.16,0.01,0.24,0.01c2,0,4.33-1.63,5.6-3.97
	c1.04-1.91,1.34-3.85,1.4-5.15c0.06-1.21-0.06-2.35-0.33-3.22c0.04-0.09,0.08-0.17,0.12-0.25C30.08,19.18,30.33,18.63,30.4,17.63z
	 M27.55,17.46c-0.03,0.45-0.09,0.58-0.44,1.33c-0.11,0.23-0.24,0.51-0.38,0.84c-0.18,0.4-0.16,0.86,0.04,1.25
	c0.32,0.61,0.7,3.68-0.77,6.36c-0.91,1.67-2.45,2.53-3.15,2.48c-0.12-0.01-0.19-0.01-0.28-0.23c-0.24-0.61-0.64-1.3-1.13-1.92
	c-0.81-1.02-2.28-2.37-2.34-2.43c-0.27-0.25-0.61-0.38-0.96-0.38c-0.19,0-0.38,0.04-0.55,0.11c-0.13-2.57-0.69-3.39-0.9-3.68
	c-0.27-0.39-0.51-0.65-0.72-0.89c-0.36-0.4-0.66-0.74-1.22-1.82c-0.44-0.86-0.46-1.53-0.22-2.27c0.95,0.16,2.4,0.46,3.69,1.02
	c3.33,1.44,4.45,1.56,5.16,1.47c1.73-0.21,2.44-1.12,2.95-2.06c0,0,0,0,0,0c0.1-0.18,0.18-0.36,0.27-0.53
	c0.08-0.15,0.17-0.35,0.24-0.47c0.04,0,0.08,0.01,0.14,0.02C27.24,15.72,27.59,16.71,27.55,17.46z"/>
<path class="st0" d="M19.03,20.06c-0.54,0.13-0.88,0.68-0.75,1.22c0.13,0.54,0.68,0.88,1.22,0.75c0.54-0.13,0.88-0.68,0.75-1.22
	C20.12,20.26,19.57,19.93,19.03,20.06z"/>
<path class="st0" d="M37.46,39.73c-2.85-2.67-6.56-4.14-10.46-4.14c-3.18,0-5.89,0.62-8.09,1.84c-1.15-2.33-3.56-3.9-6.26-3.9
	c-3.85,0-6.97,3.13-6.97,6.97s3.13,6.97,6.97,6.97h21.19c0.79,0,1.43-0.64,1.43-1.43c0-0.79-0.64-1.43-1.43-1.43H12.66
	c-2.27,0-4.12-1.85-4.12-4.12s1.85-4.12,4.12-4.12c1.95,0,3.65,1.38,4.04,3.29c0.01,0.04,0.02,0.07,0.03,0.1
	c0.02,0.27,0.13,0.54,0.31,0.77c0.49,0.61,1.39,0.71,2.01,0.21c1.91-1.54,4.58-2.32,7.96-2.32c3.17,0,6.19,1.2,8.51,3.37
	c0.27,0.26,0.63,0.39,0.97,0.39c0.38,0,0.76-0.15,1.04-0.45C38.07,41.17,38.04,40.27,37.46,39.73z"/>
</svg>
