<svg width="320" height="538" viewBox="0 0 320 538" fill="none" xmlns="http://www.w3.org/2000/svg">
<g filter="url(#filter0_d_113_15268)">
<path d="M13.1173 389.823H17.9808V445.509H13.1173C11.9589 445.509 11.0301 444.57 11.0301 443.421V391.92C11.0301 390.762 11.9688 389.833 13.1173 389.833V389.823Z" fill="#C9AFAE"/>
<path d="M302.333 382.572C306.167 382.572 309.283 385.688 309.283 389.523V447.136C309.283 450.971 306.167 454.087 302.333 454.087V382.562V382.572Z" fill="#C9AFAE"/>
<path d="M13.7669 520.479C14.9154 514.896 13.7669 510.352 13.7669 510.382L13.8868 504.041C15.0352 498.458 13.8868 492.666 13.8868 492.686L13.7669 486.344C14.9154 480.762 13.7669 474.969 13.7669 474.989V468.578C14.9154 462.995 13.7669 457.203 13.7669 457.223V450.812C14.9054 445.229 13.7669 439.437 13.7669 439.457V433.045C14.9154 427.463 13.7669 421.67 13.7669 421.69V415.279C14.9154 409.696 13.7669 403.904 13.7669 403.924V397.513C14.9154 391.93 13.7669 386.138 13.7669 386.158V379.746C14.9154 374.164 13.7669 368.371 13.7669 368.391V361.98C14.9154 356.397 13.7669 350.605 13.7669 350.625V344.214C14.9154 338.631 13.7669 332.839 13.7669 332.859V326.447C14.9154 320.865 13.7669 315.072 13.7669 315.092V308.691C14.9154 303.108 13.7669 297.316 13.7669 297.336V290.915C14.9154 285.332 13.7669 279.54 13.7669 279.56V273.188C14.9154 267.606 13.7669 261.813 13.7669 261.833V255.382C14.9154 249.799 13.7669 244.007 13.7669 244.027V237.616C14.9154 232.033 13.7669 226.241 13.7669 226.261V219.749C14.9154 214.167 13.7669 208.375 13.7669 208.395V202.173C14.9154 196.47 13.7669 190.558 13.7669 190.588V184.436C14.9154 178.744 13.7669 172.832 13.7669 172.862V166.65C14.9154 160.988 13.7669 155.106 13.7669 155.126V148.864C14.9154 143.221 13.7669 137.369 13.7669 137.399V131.177C14.9154 125.435 13.7669 119.483 13.7669 119.503V113.281C14.9154 107.609 13.7669 101.727 13.7669 101.757V95.7146C14.9154 89.9623 13.7669 84.0002 13.7669 84.0202V77.8085C14.9154 72.0861 13.7669 66.154 13.7669 66.174V60.0721C14.9154 54.3697 13.7669 48.4476 13.7669 48.4776V42.3457C14.9154 36.6233 13.7669 30.6813 13.7669 30.7112V24.6193C14.9154 19.0368 13.7669 13.2445 13.7669 13.2645H30.4647L62.7617 63.168L58.4574 231.164L62.7617 415.309L51.7763 495.242L13.7569 521.947V520.499L13.7669 520.479Z" fill="#A5A9AE"/>
<path d="M46.2346 24.4194H14.7066C13.7579 24.4194 12.9889 25.1885 12.9889 26.1371V29.1032C12.9889 30.0519 13.7579 30.8209 14.7066 30.8209H46.2346C47.1833 30.8209 47.9523 30.0519 47.9523 29.1032V26.1371C47.9523 25.1885 47.1833 24.4194 46.2346 24.4194Z" fill="#989CA1"/>
<path d="M46.2346 42.1858H14.7066C13.7579 42.1858 12.9889 42.9548 12.9889 43.9035V46.8696C12.9889 47.8182 13.7579 48.5873 14.7066 48.5873H46.2346C47.1833 48.5873 47.9523 47.8182 47.9523 46.8696V43.9035C47.9523 42.9548 47.1833 42.1858 46.2346 42.1858Z" fill="#989CA1"/>
<path d="M46.2346 59.9521H14.7066C13.7579 59.9521 12.9889 60.7212 12.9889 61.6699V64.6359C12.9889 65.5846 13.7579 66.3536 14.7066 66.3536H46.2346C47.1833 66.3536 47.9523 65.5846 47.9523 64.6359V61.6699C47.9523 60.7212 47.1833 59.9521 46.2346 59.9521Z" fill="#989CA1"/>
<path d="M46.2346 77.7185H14.7066C13.7579 77.7185 12.9889 78.4876 12.9889 79.4362V82.4023C12.9889 83.3509 13.7579 84.12 14.7066 84.12H46.2346C47.1833 84.12 47.9523 83.3509 47.9523 82.4023V79.4362C47.9523 78.4876 47.1833 77.7185 46.2346 77.7185Z" fill="#989CA1"/>
<path d="M46.2346 95.4846H14.7066C13.7579 95.4846 12.9889 96.2537 12.9889 97.2023V100.168C12.9889 101.117 13.7579 101.886 14.7066 101.886H46.2346C47.1833 101.886 47.9523 101.117 47.9523 100.168V97.2023C47.9523 96.2537 47.1833 95.4846 46.2346 95.4846Z" fill="#989CA1"/>
<path d="M46.2346 113.251H14.7066C13.7579 113.251 12.9889 114.02 12.9889 114.969V117.935C12.9889 118.883 13.7579 119.652 14.7066 119.652H46.2346C47.1833 119.652 47.9523 118.883 47.9523 117.935V114.969C47.9523 114.02 47.1833 113.251 46.2346 113.251Z" fill="#989CA1"/>
<path d="M46.2346 131.017H14.7066C13.7579 131.017 12.9889 131.786 12.9889 132.735V135.701C12.9889 136.65 13.7579 137.419 14.7066 137.419H46.2346C47.1833 137.419 47.9523 136.65 47.9523 135.701V132.735C47.9523 131.786 47.1833 131.017 46.2346 131.017Z" fill="#989CA1"/>
<path d="M46.2346 148.784H14.7066C13.7579 148.784 12.9889 149.553 12.9889 150.501V153.467C12.9889 154.416 13.7579 155.185 14.7066 155.185H46.2346C47.1833 155.185 47.9523 154.416 47.9523 153.467V150.501C47.9523 149.553 47.1833 148.784 46.2346 148.784Z" fill="#989CA1"/>
<path d="M46.2346 166.55H14.7066C13.7579 166.55 12.9889 167.319 12.9889 168.268V171.234C12.9889 172.183 13.7579 172.952 14.7066 172.952H46.2346C47.1833 172.952 47.9523 172.183 47.9523 171.234V168.268C47.9523 167.319 47.1833 166.55 46.2346 166.55Z" fill="#989CA1"/>
<path d="M46.2346 184.317H14.7066C13.7579 184.317 12.9889 185.086 12.9889 186.034V189C12.9889 189.949 13.7579 190.718 14.7066 190.718H46.2346C47.1833 190.718 47.9523 189.949 47.9523 189V186.034C47.9523 185.086 47.1833 184.317 46.2346 184.317Z" fill="#989CA1"/>
<path d="M46.2346 202.083H14.7066C13.7579 202.083 12.9889 202.852 12.9889 203.8V206.767C12.9889 207.715 13.7579 208.484 14.7066 208.484H46.2346C47.1833 208.484 47.9523 207.715 47.9523 206.767V203.8C47.9523 202.852 47.1833 202.083 46.2346 202.083Z" fill="#989CA1"/>
<path d="M46.2346 219.849H14.7066C13.7579 219.849 12.9889 220.618 12.9889 221.567V224.533C12.9889 225.482 13.7579 226.251 14.7066 226.251H46.2346C47.1833 226.251 47.9523 225.482 47.9523 224.533V221.567C47.9523 220.618 47.1833 219.849 46.2346 219.849Z" fill="#989CA1"/>
<path d="M46.2346 237.615H14.7066C13.7579 237.615 12.9889 238.385 12.9889 239.333V242.299C12.9889 243.248 13.7579 244.017 14.7066 244.017H46.2346C47.1833 244.017 47.9523 243.248 47.9523 242.299V239.333C47.9523 238.385 47.1833 237.615 46.2346 237.615Z" fill="#989CA1"/>
<path d="M46.2346 255.382H14.7066C13.7579 255.382 12.9889 256.151 12.9889 257.1V260.066C12.9889 261.014 13.7579 261.783 14.7066 261.783H46.2346C47.1833 261.783 47.9523 261.014 47.9523 260.066V257.1C47.9523 256.151 47.1833 255.382 46.2346 255.382Z" fill="#989CA1"/>
<path d="M46.2346 273.148H14.7066C13.7579 273.148 12.9889 273.917 12.9889 274.866V277.832C12.9889 278.781 13.7579 279.55 14.7066 279.55H46.2346C47.1833 279.55 47.9523 278.781 47.9523 277.832V274.866C47.9523 273.917 47.1833 273.148 46.2346 273.148Z" fill="#989CA1"/>
<path d="M46.2346 290.915H14.7066C13.7579 290.915 12.9889 291.684 12.9889 292.632V295.598C12.9889 296.547 13.7579 297.316 14.7066 297.316H46.2346C47.1833 297.316 47.9523 296.547 47.9523 295.598V292.632C47.9523 291.684 47.1833 290.915 46.2346 290.915Z" fill="#989CA1"/>
<path d="M46.2346 308.681H14.7066C13.7579 308.681 12.9889 309.45 12.9889 310.398V313.364C12.9889 314.313 13.7579 315.082 14.7066 315.082H46.2346C47.1833 315.082 47.9523 314.313 47.9523 313.364V310.398C47.9523 309.45 47.1833 308.681 46.2346 308.681Z" fill="#989CA1"/>
<path d="M46.2346 326.447H14.7066C13.7579 326.447 12.9889 327.216 12.9889 328.165V331.131C12.9889 332.079 13.7579 332.848 14.7066 332.848H46.2346C47.1833 332.848 47.9523 332.079 47.9523 331.131V328.165C47.9523 327.216 47.1833 326.447 46.2346 326.447Z" fill="#989CA1"/>
<path d="M46.2346 344.213H14.7066C13.7579 344.213 12.9889 344.982 12.9889 345.931V348.897C12.9889 349.846 13.7579 350.615 14.7066 350.615H46.2346C47.1833 350.615 47.9523 349.846 47.9523 348.897V345.931C47.9523 344.982 47.1833 344.213 46.2346 344.213Z" fill="#989CA1"/>
<path d="M46.2346 361.99H14.7066C13.7579 361.99 12.9889 362.759 12.9889 363.707V366.674C12.9889 367.622 13.7579 368.391 14.7066 368.391H46.2346C47.1833 368.391 47.9523 367.622 47.9523 366.674V363.707C47.9523 362.759 47.1833 361.99 46.2346 361.99Z" fill="#989CA1"/>
<path d="M46.2346 379.756H14.7066C13.7579 379.756 12.9889 380.525 12.9889 381.474V384.44C12.9889 385.389 13.7579 386.158 14.7066 386.158H46.2346C47.1833 386.158 47.9523 385.389 47.9523 384.44V381.474C47.9523 380.525 47.1833 379.756 46.2346 379.756Z" fill="#989CA1"/>
<path d="M46.2346 397.522H14.7066C13.7579 397.522 12.9889 398.292 12.9889 399.24V402.206C12.9889 403.155 13.7579 403.924 14.7066 403.924H46.2346C47.1833 403.924 47.9523 403.155 47.9523 402.206V399.24C47.9523 398.292 47.1833 397.522 46.2346 397.522Z" fill="#989CA1"/>
<path d="M46.2346 415.289H14.7066C13.7579 415.289 12.9889 416.058 12.9889 417.007V419.973C12.9889 420.921 13.7579 421.69 14.7066 421.69H46.2346C47.1833 421.69 47.9523 420.921 47.9523 419.973V417.007C47.9523 416.058 47.1833 415.289 46.2346 415.289Z" fill="#989CA1"/>
<path d="M46.2346 433.055H14.7066C13.7579 433.055 12.9889 433.824 12.9889 434.773V437.739C12.9889 438.688 13.7579 439.457 14.7066 439.457H46.2346C47.1833 439.457 47.9523 438.688 47.9523 437.739V434.773C47.9523 433.824 47.1833 433.055 46.2346 433.055Z" fill="#989CA1"/>
<path d="M46.2346 450.822H14.7066C13.7579 450.822 12.9889 451.591 12.9889 452.539V455.505C12.9889 456.454 13.7579 457.223 14.7066 457.223H46.2346C47.1833 457.223 47.9523 456.454 47.9523 455.505V452.539C47.9523 451.591 47.1833 450.822 46.2346 450.822Z" fill="#989CA1"/>
<path d="M46.2346 468.588H14.7066C13.7579 468.588 12.9889 469.357 12.9889 470.306V473.272C12.9889 474.22 13.7579 474.989 14.7066 474.989H46.2346C47.1833 474.989 47.9523 474.22 47.9523 473.272V470.306C47.9523 469.357 47.1833 468.588 46.2346 468.588Z" fill="#989CA1"/>
<path d="M46.2346 486.354H14.7066C13.7579 486.354 12.9889 487.123 12.9889 488.072V491.038C12.9889 491.987 13.7579 492.756 14.7066 492.756H46.2346C47.1833 492.756 47.9523 491.987 47.9523 491.038V488.072C47.9523 487.123 47.1833 486.354 46.2346 486.354Z" fill="#989CA1"/>
<path d="M46.2346 504.12H14.7066C13.7579 504.12 12.9889 504.889 12.9889 505.838V508.804C12.9889 509.753 13.7579 510.522 14.7066 510.522H46.2346C47.1833 510.522 47.9523 509.753 47.9523 508.804V505.838C47.9523 504.889 47.1833 504.12 46.2346 504.12Z" fill="#989CA1"/>
<path d="M305.199 14.7024C304.051 20.285 305.199 24.8289 305.199 24.799L305.079 31.1405C303.931 36.7231 305.079 42.5154 305.079 42.4954L305.199 48.837C304.051 54.4195 305.199 60.2118 305.199 60.1918V66.6033C304.051 72.1859 305.199 77.9781 305.199 77.9582V84.3696C304.061 89.9522 305.199 95.7445 305.199 95.7245V102.136C304.051 107.719 305.199 113.511 305.199 113.491V119.902C304.051 125.485 305.199 131.277 305.199 131.257V137.669C304.051 143.251 305.199 149.043 305.199 149.024V155.435C304.051 161.018 305.199 166.81 305.199 166.79V173.201C304.051 178.784 305.199 184.576 305.199 184.556V190.968C304.051 196.55 305.199 202.342 305.199 202.323V208.734C304.051 214.317 305.199 220.109 305.199 220.089V226.49C304.051 232.073 305.199 237.865 305.199 237.845V244.267C304.051 249.849 305.199 255.641 305.199 255.622V261.993C304.051 267.576 305.199 273.368 305.199 273.348V279.799C304.051 285.382 305.199 291.174 305.199 291.154V297.566C304.051 303.148 305.199 308.941 305.199 308.921V315.432C304.051 321.014 305.199 326.807 305.199 326.787V333.008C304.051 338.711 305.199 344.623 305.199 344.593V350.745C304.051 356.437 305.199 362.349 305.199 362.319V368.531C304.051 374.194 305.199 380.076 305.199 380.056V386.317C304.051 391.96 305.199 397.812 305.199 397.782V404.004C304.051 409.746 305.199 415.698 305.199 415.678V421.9C304.051 427.573 305.199 433.455 305.199 433.425V439.467C304.051 445.219 305.199 451.181 305.199 451.161V457.373C304.051 463.095 305.199 469.027 305.199 469.007V475.109C304.051 480.812 305.199 486.734 305.199 486.704V492.836C304.051 498.558 305.199 504.5 305.199 504.47V510.562C304.051 516.145 305.199 521.937 305.199 521.917H288.501L256.204 472.013L260.509 304.017L256.204 119.872L267.19 39.9388L305.209 13.2344V14.6824L305.199 14.7024Z" fill="#A5A9AE"/>
<path d="M272.722 510.762H304.25C305.198 510.762 305.967 509.993 305.967 509.044V506.078C305.967 505.129 305.198 504.36 304.25 504.36H272.722C271.773 504.36 271.004 505.129 271.004 506.078V509.044C271.004 509.993 271.773 510.762 272.722 510.762Z" fill="#989CA1"/>
<path d="M272.722 492.995H304.25C305.198 492.995 305.967 492.226 305.967 491.278V488.312C305.967 487.363 305.198 486.594 304.25 486.594H272.722C271.773 486.594 271.004 487.363 271.004 488.312V491.278C271.004 492.226 271.773 492.995 272.722 492.995Z" fill="#989CA1"/>
<path d="M272.722 475.239H304.25C305.198 475.239 305.967 474.47 305.967 473.521V470.555C305.967 469.607 305.198 468.838 304.25 468.838H272.722C271.773 468.838 271.004 469.607 271.004 470.555V473.521C271.004 474.47 271.773 475.239 272.722 475.239Z" fill="#989CA1"/>
<path d="M272.722 457.463H304.25C305.198 457.463 305.967 456.694 305.967 455.745V452.779C305.967 451.83 305.198 451.061 304.25 451.061H272.722C271.773 451.061 271.004 451.83 271.004 452.779V455.745C271.004 456.694 271.773 457.463 272.722 457.463Z" fill="#989CA1"/>
<path d="M272.722 439.697H304.25C305.198 439.697 305.967 438.927 305.967 437.979V435.013C305.967 434.064 305.198 433.295 304.25 433.295H272.722C271.773 433.295 271.004 434.064 271.004 435.013V437.979C271.004 438.927 271.773 439.697 272.722 439.697Z" fill="#989CA1"/>
<path d="M272.722 421.93H304.25C305.198 421.93 305.967 421.161 305.967 420.212V417.246C305.967 416.298 305.198 415.529 304.25 415.529H272.722C271.773 415.529 271.004 416.298 271.004 417.246V420.212C271.004 421.161 271.773 421.93 272.722 421.93Z" fill="#989CA1"/>
<path d="M272.722 404.164H304.25C305.198 404.164 305.967 403.395 305.967 402.446V399.48C305.967 398.531 305.198 397.762 304.25 397.762H272.722C271.773 397.762 271.004 398.531 271.004 399.48V402.446C271.004 403.395 271.773 404.164 272.722 404.164Z" fill="#989CA1"/>
<path d="M272.722 386.397H304.25C305.198 386.397 305.967 385.628 305.967 384.68V381.713C305.967 380.765 305.198 379.996 304.25 379.996H272.722C271.773 379.996 271.004 380.765 271.004 381.713V384.68C271.004 385.628 271.773 386.397 272.722 386.397Z" fill="#989CA1"/>
<path d="M272.722 368.631H304.25C305.198 368.631 305.967 367.862 305.967 366.913V363.947C305.967 362.998 305.198 362.229 304.25 362.229H272.722C271.773 362.229 271.004 362.998 271.004 363.947V366.913C271.004 367.862 271.773 368.631 272.722 368.631Z" fill="#989CA1"/>
<path d="M272.722 350.865H304.25C305.198 350.865 305.967 350.096 305.967 349.147V346.181C305.967 345.232 305.198 344.463 304.25 344.463H272.722C271.773 344.463 271.004 345.232 271.004 346.181V349.147C271.004 350.096 271.773 350.865 272.722 350.865Z" fill="#989CA1"/>
<path d="M272.722 333.098H304.25C305.198 333.098 305.967 332.329 305.967 331.381V328.415C305.967 327.466 305.198 326.697 304.25 326.697H272.722C271.773 326.697 271.004 327.466 271.004 328.415V331.381C271.004 332.329 271.773 333.098 272.722 333.098Z" fill="#989CA1"/>
<path d="M272.722 315.332H304.25C305.198 315.332 305.967 314.563 305.967 313.614V310.648C305.967 309.7 305.198 308.931 304.25 308.931H272.722C271.773 308.931 271.004 309.7 271.004 310.648V313.614C271.004 314.563 271.773 315.332 272.722 315.332Z" fill="#989CA1"/>
<path d="M272.722 297.566H304.25C305.198 297.566 305.967 296.797 305.967 295.848V292.882C305.967 291.933 305.198 291.164 304.25 291.164H272.722C271.773 291.164 271.004 291.933 271.004 292.882V295.848C271.004 296.797 271.773 297.566 272.722 297.566Z" fill="#989CA1"/>
<path d="M272.722 279.799H304.25C305.198 279.799 305.967 279.03 305.967 278.082V275.116C305.967 274.167 305.198 273.398 304.25 273.398H272.722C271.773 273.398 271.004 274.167 271.004 275.116V278.082C271.004 279.03 271.773 279.799 272.722 279.799Z" fill="#989CA1"/>
<path d="M272.722 262.023H304.25C305.198 262.023 305.967 261.254 305.967 260.305V257.339C305.967 256.391 305.198 255.621 304.25 255.621H272.722C271.773 255.621 271.004 256.391 271.004 257.339V260.305C271.004 261.254 271.773 262.023 272.722 262.023Z" fill="#989CA1"/>
<path d="M272.722 244.257H304.25C305.198 244.257 305.967 243.488 305.967 242.539V239.573C305.967 238.624 305.198 237.855 304.25 237.855H272.722C271.773 237.855 271.004 238.624 271.004 239.573V242.539C271.004 243.488 271.773 244.257 272.722 244.257Z" fill="#989CA1"/>
<path d="M272.722 226.49H304.25C305.198 226.49 305.967 225.721 305.967 224.773V221.807C305.967 220.858 305.198 220.089 304.25 220.089H272.722C271.773 220.089 271.004 220.858 271.004 221.807V224.773C271.004 225.721 271.773 226.49 272.722 226.49Z" fill="#989CA1"/>
<path d="M272.722 208.724H304.25C305.198 208.724 305.967 207.955 305.967 207.006V204.04C305.967 203.092 305.198 202.323 304.25 202.323H272.722C271.773 202.323 271.004 203.092 271.004 204.04V207.006C271.004 207.955 271.773 208.724 272.722 208.724Z" fill="#989CA1"/>
<path d="M272.722 190.958H304.25C305.198 190.958 305.967 190.189 305.967 189.24V186.274C305.967 185.325 305.198 184.556 304.25 184.556H272.722C271.773 184.556 271.004 185.325 271.004 186.274V189.24C271.004 190.189 271.773 190.958 272.722 190.958Z" fill="#989CA1"/>
<path d="M272.722 173.191H304.25C305.198 173.191 305.967 172.422 305.967 171.474V168.508C305.967 167.559 305.198 166.79 304.25 166.79H272.722C271.773 166.79 271.004 167.559 271.004 168.508V171.474C271.004 172.422 271.773 173.191 272.722 173.191Z" fill="#989CA1"/>
<path d="M272.722 155.425H304.25C305.198 155.425 305.967 154.656 305.967 153.707V150.741C305.967 149.792 305.198 149.023 304.25 149.023H272.722C271.773 149.023 271.004 149.792 271.004 150.741V153.707C271.004 154.656 271.773 155.425 272.722 155.425Z" fill="#989CA1"/>
<path d="M272.722 137.658H304.25C305.198 137.658 305.967 136.889 305.967 135.941V132.975C305.967 132.026 305.198 131.257 304.25 131.257H272.722C271.773 131.257 271.004 132.026 271.004 132.975V135.941C271.004 136.889 271.773 137.658 272.722 137.658Z" fill="#989CA1"/>
<path d="M272.722 119.893H304.25C305.198 119.893 305.967 119.124 305.967 118.175V115.209C305.967 114.26 305.198 113.491 304.25 113.491H272.722C271.773 113.491 271.004 114.26 271.004 115.209V118.175C271.004 119.124 271.773 119.893 272.722 119.893Z" fill="#989CA1"/>
<path d="M272.722 102.126H304.25C305.198 102.126 305.967 101.357 305.967 100.408V97.4422C305.967 96.4935 305.198 95.7245 304.25 95.7245H272.722C271.773 95.7245 271.004 96.4935 271.004 97.4422V100.408C271.004 101.357 271.773 102.126 272.722 102.126Z" fill="#989CA1"/>
<path d="M272.722 84.3696H304.25C305.198 84.3696 305.967 83.6006 305.967 82.6519V79.6859C305.967 78.7372 305.198 77.9682 304.25 77.9682H272.722C271.773 77.9682 271.004 78.7372 271.004 79.6859V82.6519C271.004 83.6006 271.773 84.3696 272.722 84.3696Z" fill="#989CA1"/>
<path d="M272.722 66.5933H304.25C305.198 66.5933 305.967 65.8242 305.967 64.8755V61.9095C305.967 60.9608 305.198 60.1918 304.25 60.1918L272.722 60.1918C271.773 60.1918 271.004 60.9608 271.004 61.9095V64.8755C271.004 65.8242 271.773 66.5933 272.722 66.5933Z" fill="#989CA1"/>
<path d="M272.722 48.8269L304.25 48.8269C305.198 48.8269 305.967 48.0579 305.967 47.1092V44.1431C305.967 43.1945 305.198 42.4254 304.25 42.4254L272.722 42.4254C271.773 42.4254 271.004 43.1945 271.004 44.1431V47.1092C271.004 48.0579 271.773 48.8269 272.722 48.8269Z" fill="#989CA1"/>
<path d="M272.722 31.0605L304.25 31.0605C305.198 31.0605 305.967 30.2915 305.967 29.3428V26.3768C305.967 25.4281 305.198 24.6591 304.25 24.6591L272.722 24.6591C271.773 24.6591 271.004 25.4281 271.004 26.3768V29.3428C271.004 30.2915 271.773 31.0605 272.722 31.0605Z" fill="#989CA1"/>
<path d="M10.0722 524.243L10.2818 523.445C10.162 523.704 10.0921 523.974 10.0722 524.243Z" fill="url(#paint0_linear_113_15268)"/>
<path d="M15.9946 522.496C18.1917 518.491 26.3508 502.583 32.203 484.407C40.2323 459.48 41.6305 427.542 41.6305 427.542V108.597C41.6305 99.9788 39.1937 72.6752 31.6038 50.285C25.3022 31.6598 18.2017 17.0293 15.745 12.6152C15.2856 11.7963 15.4354 10.7776 16.1045 10.1185L17.243 9H12.4194C10.6018 9 9.43337 10.8975 10.2822 12.4754C16.5739 24.2796 36.1278 64.6159 36.1278 110.215V426.704C36.1278 426.704 37.7856 473.561 10.3322 523.295C10.3022 523.345 10.2922 523.395 10.2723 523.445L10.0625 524.244C9.96266 525.552 10.9813 526.8 12.4494 526.8H16.2143C16.0745 526.62 15.9547 526.441 15.8548 526.241C15.2556 525.063 15.3455 523.644 15.9846 522.486L15.9946 522.496Z" fill="#C9AFAE"/>
<path d="M303.352 522.496C301.154 518.491 292.995 502.583 287.143 484.407C279.114 459.48 277.716 427.542 277.716 427.542C277.716 427.542 277.716 117.206 277.716 108.587C277.716 99.9688 280.152 72.6652 287.742 50.275C294.044 31.6598 301.154 17.0293 303.611 12.6152C304.071 11.7963 303.921 10.7776 303.252 10.1185L302.103 9H306.927C308.734 9 309.903 10.8975 309.064 12.4754C302.772 24.2796 283.218 64.6159 283.218 110.215C283.218 164.573 283.218 426.704 283.218 426.704C283.218 426.704 281.561 473.561 309.014 523.295C309.044 523.345 309.054 523.395 309.074 523.445L309.284 524.244C309.384 525.552 308.365 526.8 306.897 526.8H303.132C303.272 526.62 303.391 526.441 303.491 526.241C304.091 525.063 304.001 523.644 303.362 522.486L303.352 522.496Z" fill="#C9AFAE"/>
<path d="M278.584 426.893V110.405C278.584 64.7956 298.138 24.4693 304.43 12.6651C305.279 11.0772 304.11 9.1897 302.293 9.1897H17.0925L15.954 10.3082C15.2849 10.9673 15.1451 11.986 15.5945 12.8049C18.0512 17.219 25.1617 31.8495 31.4633 50.4647C39.0432 72.8649 41.49 100.169 41.49 108.777V427.732C41.49 427.732 40.0818 459.67 32.0625 484.596C26.2103 502.762 18.0512 518.681 15.8541 522.686C15.215 523.844 15.1151 525.262 15.7243 526.441C15.8241 526.63 15.944 526.82 16.0838 527H302.273C304.1 527 305.259 525.073 304.39 523.485C276.936 473.751 278.594 426.893 278.594 426.893H278.584Z" fill="url(#paint1_linear_113_15268)"/>
<path d="M226.454 338.102H177.699C175.708 338.102 174.094 339.716 174.094 341.707V390.462C174.094 392.453 175.708 394.067 177.699 394.067H226.454C228.446 394.067 230.06 392.453 230.06 390.462V341.707C230.06 339.716 228.446 338.102 226.454 338.102Z" stroke="#977B7C" stroke-miterlimit="10"/>
<path d="M168.682 141.923V197.469C168.682 200.704 171.308 203.331 174.544 203.331H192.001C194.507 205.318 198.282 206.587 202.517 206.587C206.751 206.587 210.526 205.318 213.033 203.331H230.489C233.725 203.331 236.352 200.704 236.352 197.469V141.923C236.352 138.507 233.585 135.741 230.17 135.741H214.91L210.196 132.485H193.968L189.923 135.741H174.853C171.438 135.741 168.672 138.507 168.672 141.923H168.682Z" fill="url(#paint2_radial_113_15268)"/>
<path d="M231.557 162.096L231.697 192.925C231.697 196.161 228.93 198.787 225.695 198.787H213.042C210.535 200.775 206.76 202.043 202.526 202.043C198.291 202.043 194.516 200.775 192.01 198.787H177.859C174.153 198.787 173.205 196.161 173.205 192.925V143.701C173.205 142.982 173.494 142.293 174.004 141.783L174.233 141.554C174.743 141.044 175.432 140.755 176.151 140.755H189.912C190.482 140.755 191.031 140.555 191.46 140.185L195.245 136.96C195.565 136.74 195.944 136.63 196.324 136.63H208.318C208.667 136.63 209.017 136.73 209.317 136.91L213.581 140.215C214 140.525 214.5 140.695 215.029 140.695H228.911C229.749 140.695 230.538 141.084 231.058 141.743C231.427 142.223 231.627 142.812 231.627 143.411L231.557 162.096Z" fill="#C2C2C2"/>
<path d="M151.944 263.291C152.124 263.291 152.314 263.151 152.314 262.971V261.873C152.314 261.693 152.174 261.503 151.994 261.503H144.224C144.045 261.503 143.855 261.643 143.855 261.873V273.068C143.855 273.248 143.995 273.438 144.224 273.438H151.994C152.174 273.438 152.364 273.298 152.364 273.068V272.019C152.364 271.84 152.224 271.65 152.044 271.65H145.782V268.404H151.355C151.535 268.404 151.725 268.264 151.725 268.085V266.986C151.725 266.806 151.585 266.617 151.355 266.617H145.782V263.281H151.954L151.944 263.291Z" fill="#977B7C"/>
<path d="M123.702 261.513H115.932C115.752 261.513 115.563 261.653 115.563 261.883V264.579H117.44V263.301H123.702C123.882 263.301 124.071 263.161 124.071 262.981V261.883C124.071 261.703 123.892 261.563 123.702 261.513Z" fill="#977B7C"/>
<path d="M123.702 271.66H117.44V268.414H123.013C123.192 268.414 123.382 268.275 123.382 268.095V266.996C123.382 266.817 123.242 266.627 123.013 266.627H117.44V265.848H115.563V273.068C115.563 273.248 115.702 273.438 115.932 273.438H123.702C123.882 273.438 124.071 273.298 124.071 273.068V272.02C124.021 271.84 123.892 271.65 123.702 271.65V271.66Z" fill="#977B7C"/>
<path d="M141.159 261.513H139.97C139.791 261.513 139.601 261.653 139.601 261.833V264.529H141.478V261.883C141.528 261.703 141.339 261.513 141.159 261.513Z" fill="#977B7C"/>
<path d="M139.65 273.078C139.65 273.258 139.789 273.448 140.019 273.448H141.208C141.387 273.448 141.577 273.308 141.577 273.078V265.858H139.66V273.078H139.65Z" fill="#977B7C"/>
<path d="M88.5987 261.513H84.7139C84.5342 261.513 84.3444 261.653 84.3444 261.883V264.579H86.2219V263.301H88.5488C90.2865 263.301 91.385 264.22 91.385 265.588C91.385 266.956 90.2865 267.965 88.5488 267.965H86.2219V265.858H84.3444V273.078C84.3444 273.258 84.4842 273.448 84.7139 273.448H85.9023C86.0821 273.448 86.2719 273.308 86.2719 273.078V269.742H88.4689C91.3451 269.742 93.2725 268.055 93.2725 265.588C93.2725 263.121 91.395 261.523 88.6087 261.523L88.5987 261.513Z" fill="#977B7C"/>
<path d="M104.087 272.848L100.841 269.103C102.349 268.694 103.487 267.416 103.627 265.858H101.75C101.57 266.906 100.511 267.595 99.0033 267.595H96.3968V263.301H99.0033C100.282 263.301 101.2 263.76 101.56 264.539H103.527C103.118 262.712 101.38 261.523 99.0033 261.523H94.8489C94.6691 261.523 94.4794 261.663 94.4794 261.843V273.038C94.4794 273.218 94.6192 273.408 94.8489 273.408H96.0373C96.217 273.408 96.4068 273.268 96.4068 273.038V269.333H98.6937L102.079 273.268C102.129 273.358 102.259 273.408 102.349 273.408H103.807C103.987 273.408 104.176 273.268 104.176 273.038C104.176 273.038 104.127 272.948 104.087 272.858V272.848Z" fill="#977B7C"/>
<path d="M113.454 263.291C113.634 263.291 113.824 263.151 113.824 262.971V261.873C113.824 261.693 113.684 261.503 113.504 261.503H105.735C105.555 261.503 105.365 261.643 105.365 261.873V264.569V265.898V273.118C105.365 273.298 105.505 273.487 105.735 273.487H113.504C113.684 273.487 113.874 273.348 113.874 273.118V272.069C113.874 271.89 113.734 271.7 113.554 271.7H107.203V268.454H112.775C112.955 268.454 113.145 268.314 113.145 268.135V267.036C113.145 266.856 113.005 266.667 112.775 266.667H107.203V263.471V263.291H113.464H113.454Z" fill="#977B7C"/>
<path d="M137.003 261.513H136.134C135.994 261.513 135.905 261.563 135.815 261.693L133.348 265.848L131.61 268.774L127.406 261.693C127.406 261.693 127.356 261.643 127.356 261.603C127.306 261.553 127.216 261.513 127.126 261.513H126.207C126.028 261.513 125.838 261.653 125.838 261.883V273.078C125.838 273.258 125.978 273.448 126.207 273.448H127.396C127.486 273.448 127.576 273.398 127.666 273.358C127.715 273.308 127.755 273.218 127.755 273.128L127.705 265.728L127.795 265.908L130.901 271.121L130.951 271.211C130.951 271.211 131.091 271.3 131.181 271.3H131.96C132.1 271.3 132.19 271.25 132.279 271.121L135.475 265.778V273.138C135.475 273.318 135.615 273.507 135.845 273.507H137.033C137.213 273.507 137.403 273.368 137.403 273.138V261.893C137.353 261.713 137.223 261.573 136.993 261.523L137.003 261.513Z" fill="#977B7C"/>
<path d="M78.1428 272.998C77.5935 272.998 77.184 273.407 77.184 273.957C77.184 274.506 77.5935 274.915 78.1428 274.915C78.692 274.915 79.1015 274.506 79.1015 273.957C79.1015 273.457 78.6421 273.038 78.1428 272.998Z" fill="#977B7C"/>
<path d="M77.1725 276.194C75.5247 278.072 73.1079 279.16 70.5913 279.16H70.3616C68.9035 279.16 67.5253 278.701 66.297 277.922C65.1585 277.103 64.2896 275.914 63.8702 274.586C63.7803 274.357 63.7304 274.127 63.6904 273.897C63.6006 273.578 63.8303 273.208 64.1498 273.118H64.2896C64.6092 273.118 64.8789 273.348 64.9787 273.617C64.9787 273.667 65.0287 273.757 65.0287 273.797C65.1185 274.347 65.3482 274.846 65.6179 275.355C66.6665 277.093 68.6339 277.822 70.3715 277.872C72.6086 277.922 74.7557 277.003 76.2237 275.315C76.4534 275.046 76.8629 275.046 77.1425 275.265C77.4122 275.445 77.4621 275.815 77.2823 276.084C77.2324 276.134 77.2324 276.174 77.1925 276.174L77.1725 276.194Z" fill="#977B7C"/>
<path d="M66.8478 266.637C66.5282 266.457 63.8318 264.719 64.0615 261.513C64.2412 259.227 65.889 257.359 68.1261 256.81C70.8724 256.221 74.158 257.589 75.1167 261.334L75.2066 261.653C75.7559 263.85 76.445 266.317 79.5508 266.317H79.8704C80.2399 266.317 80.5096 266.047 80.5096 265.678C80.5096 265.308 80.2399 265.039 79.8704 265.039H79.5508C77.5435 265.039 77.0841 263.711 76.4849 261.384L76.395 261.064C75.2066 256.54 71.182 254.892 67.8464 255.581C65.0601 256.221 63.0029 258.547 62.7732 261.384C62.5435 264.45 64.4609 266.687 66.1986 267.735C66.2885 267.785 66.4283 267.825 66.5182 267.825C66.7479 267.825 66.9776 267.735 67.0675 267.505C67.2472 267.236 67.1573 266.816 66.8378 266.637H66.8478Z" fill="#977B7C"/>
<path d="M80.4193 269.653C79.2808 268.095 77.6729 266.956 75.8454 266.317C75.5258 266.227 75.1163 266.407 75.0265 266.727C74.9366 267.046 75.1163 267.456 75.4359 267.545C76.894 268.095 78.1822 269.003 79.1809 270.192C79.0012 270.691 78.8114 271.151 78.5917 271.61C78.4519 271.93 78.5917 272.339 78.9113 272.479C79.0012 272.529 79.091 272.529 79.1809 272.529C79.4506 272.529 79.6803 272.389 79.7701 272.159C80.0398 271.61 80.2695 270.971 80.4992 270.382C80.5491 270.292 80.5491 270.202 80.5491 270.112C80.5491 269.972 80.4992 269.792 80.4093 269.653H80.4193Z" fill="#977B7C"/>
<path d="M74.0675 261.154C74.1174 260.425 73.7979 259.147 72.7393 258.957C72.0502 258.777 71.3711 259.187 71.1814 259.876C71.1314 259.926 71.1314 260.015 71.0915 260.055C70.9983 260.209 70.8751 260.298 70.722 260.325C70.722 260.325 70.3525 260.325 69.0342 259.736C68.2153 259.416 67.3465 259.187 66.4776 259.097C66.208 259.097 65.9783 259.236 65.8385 259.466C65.3391 260.285 65.2892 261.294 65.7486 262.113C65.9283 262.522 66.158 262.892 66.4776 263.211C66.5675 263.301 66.6174 263.391 66.7073 263.481C66.8471 263.94 66.937 264.4 66.8871 264.849C66.8871 265.169 67.0269 265.488 67.2965 265.668C67.5662 265.848 67.8857 265.898 68.2153 265.808C68.2652 265.808 68.3052 265.808 68.3052 265.758C68.5349 265.988 68.7646 266.217 68.9443 266.447C69.0841 266.627 69.174 266.816 69.2639 266.996C69.4437 267.545 69.953 267.915 70.5422 267.955H70.6321C71.5509 267.955 72.5995 267.226 73.1887 266.127C73.5582 265.398 73.7779 264.619 73.8278 263.8C73.8778 263.301 73.8278 262.792 73.688 262.342C73.688 262.292 73.7379 262.252 73.7379 262.203C73.9177 261.883 74.0076 261.513 74.0575 261.154H74.0675ZM72.7393 261.104C72.7393 261.334 72.6494 261.513 72.5595 261.693C72.5096 261.833 72.4696 261.923 72.3798 262.063C72.2899 262.242 72.2899 262.432 72.3798 262.612C72.6494 263.621 72.5196 264.619 72.0102 265.538C71.7406 266.127 71.1913 266.547 70.5522 266.677C70.5023 266.677 70.4623 266.677 70.4124 266.587C70.2726 266.267 70.1427 265.997 69.913 265.718C69.5935 265.348 69.224 264.989 68.8644 264.619C68.7246 264.529 68.5948 264.44 68.405 264.44C68.3152 264.44 68.2253 264.44 68.1354 264.489C68.0855 263.301 67.8158 262.932 67.726 262.802C67.6361 262.662 67.5462 262.532 67.4064 262.392C67.1767 262.163 66.9969 261.893 66.8571 261.573C66.6774 261.254 66.6274 260.884 66.7672 260.525C67.3564 260.615 67.9057 260.794 68.455 260.984C69.963 261.623 70.4623 261.713 70.8318 261.673C71.421 261.623 71.9304 261.264 72.1601 260.715C72.21 260.625 72.2499 260.575 72.2999 260.485C72.3498 260.395 72.3897 260.345 72.3897 260.255H72.4397C72.6194 260.305 72.8092 260.754 72.7593 261.124L72.7393 261.104Z" fill="#977B7C"/>
<path d="M68.855 262.303C68.6254 262.352 68.4458 262.622 68.5356 262.851C68.5855 263.081 68.855 263.261 69.0845 263.171C69.314 263.121 69.4937 262.851 69.4039 262.622C69.354 262.392 69.1344 262.253 68.9049 262.303H68.855Z" fill="#977B7C"/>
<path d="M77.3132 271.261C76.0349 270.022 74.2972 269.383 72.5096 269.383C71.2313 269.333 69.953 269.613 68.8045 270.202C68.2552 269.153 67.1567 268.464 65.9283 268.424C64.1507 268.424 62.7326 269.842 62.7326 271.62C62.7326 273.398 64.1507 274.816 65.9283 274.816H75.6154C75.9849 274.816 76.2546 274.546 76.2546 274.177C76.2546 273.807 75.9849 273.538 75.6154 273.538H65.9683C64.9197 273.538 64.0908 272.719 64.0908 271.66C64.0908 270.601 64.9097 269.783 65.9683 269.783C66.8371 269.783 67.6161 270.422 67.7958 271.291V271.34C67.7958 271.48 67.8458 271.61 67.9356 271.71C68.1653 271.98 68.5748 272.03 68.8544 271.8C69.7233 271.111 70.9616 270.751 72.5096 270.751C73.9676 270.751 75.3458 271.301 76.3944 272.309C76.5342 272.449 76.664 272.489 76.8538 272.489C77.0435 272.489 77.2233 272.399 77.3132 272.259C77.6327 271.99 77.6827 271.53 77.403 271.211C77.3531 271.261 77.3531 271.211 77.3132 271.261Z" fill="#977B7C"/>
<path d="M214.23 177.775C213.372 177.775 212.732 178.415 212.732 179.273C212.732 180.131 213.372 180.771 214.23 180.771C215.088 180.771 215.728 180.131 215.728 179.273C215.728 178.493 215.01 177.838 214.23 177.775Z" fill="#A1A3A8"/>
<path d="M212.355 183.368C209.476 186.781 205.253 188.761 200.856 188.761H200.454C197.907 188.761 195.499 187.925 193.353 186.509C191.363 185.02 189.845 182.859 189.112 180.444C188.955 180.027 188.868 179.609 188.798 179.191C188.641 178.61 189.043 177.939 189.601 177.775H189.845C190.404 177.775 190.875 178.193 191.049 178.683C191.049 178.774 191.137 178.937 191.137 179.01C191.294 180.009 191.695 180.916 192.166 181.842C193.998 185.002 197.436 186.327 200.472 186.418C204.381 186.509 208.132 184.839 210.697 181.77C211.098 181.28 211.814 181.28 212.302 181.679C212.774 182.006 212.861 182.678 212.547 183.168C212.459 183.259 212.459 183.331 212.39 183.331L212.355 183.368Z" fill="#A1A3A8"/>
<path d="M194.134 166.681C193.559 166.362 188.706 163.282 189.119 157.599C189.443 153.545 192.409 150.235 196.435 149.261C201.378 148.217 207.292 150.642 209.018 157.28L209.179 157.847C210.168 161.741 211.408 166.114 216.999 166.114H217.574C218.239 166.114 218.724 165.636 218.724 164.981C218.724 164.326 218.239 163.848 217.574 163.848H216.999C213.386 163.848 212.559 161.494 211.48 157.369L211.318 156.802C209.179 148.783 201.936 145.862 195.932 147.084C190.917 148.217 187.214 152.341 186.801 157.369C186.387 162.804 189.838 166.769 192.966 168.628C193.128 168.716 193.379 168.787 193.541 168.787C193.955 168.787 194.368 168.628 194.53 168.221C194.853 167.743 194.692 166.999 194.116 166.681H194.134Z" fill="#A1A3A8"/>
<path d="M218.49 171.709C216.44 168.964 213.545 166.958 210.254 165.832C209.678 165.673 208.941 165.99 208.779 166.553C208.617 167.116 208.941 167.838 209.516 167.996C212.142 168.964 214.462 170.565 216.26 172.659C215.937 173.539 215.595 174.348 215.199 175.158C214.948 175.721 215.199 176.442 215.775 176.688C215.937 176.776 216.098 176.776 216.26 176.776C216.746 176.776 217.16 176.53 217.321 176.125C217.807 175.158 218.221 174.031 218.634 172.993C218.724 172.835 218.724 172.677 218.724 172.518C218.724 172.272 218.634 171.955 218.472 171.709H218.49Z" fill="#A1A3A8"/>
<path d="M206.732 156.766C206.818 155.478 206.264 153.218 204.429 152.883C203.234 152.565 202.057 153.289 201.728 154.507C201.641 154.595 201.641 154.754 201.572 154.825C201.41 155.095 201.197 155.254 200.931 155.301C200.931 155.301 200.291 155.301 198.005 154.26C196.585 153.695 195.079 153.289 193.573 153.13C193.105 153.13 192.707 153.377 192.465 153.783C191.599 155.231 191.512 157.014 192.309 158.461C192.62 159.185 193.019 159.838 193.573 160.403C193.729 160.562 193.815 160.72 193.971 160.879C194.213 161.691 194.369 162.503 194.283 163.297C194.283 163.862 194.525 164.427 194.992 164.745C195.46 165.063 196.014 165.151 196.585 164.992C196.672 164.992 196.741 164.992 196.741 164.904C197.139 165.31 197.538 165.716 197.849 166.122C198.092 166.439 198.248 166.775 198.403 167.093C198.715 168.063 199.598 168.716 200.62 168.787H200.775C202.368 168.787 204.186 167.499 205.208 165.557C205.848 164.268 206.229 162.892 206.316 161.444C206.403 160.562 206.316 159.661 206.074 158.867C206.074 158.779 206.16 158.708 206.16 158.62C206.472 158.055 206.628 157.402 206.714 156.766H206.732ZM204.429 156.678C204.429 157.084 204.273 157.402 204.117 157.72C204.03 157.967 203.961 158.126 203.805 158.373C203.65 158.69 203.65 159.026 203.805 159.344C204.273 161.126 204.048 162.892 203.165 164.515C202.697 165.557 201.745 166.298 200.637 166.528C200.55 166.528 200.481 166.528 200.395 166.369C200.152 165.804 199.927 165.327 199.529 164.833C198.975 164.18 198.334 163.545 197.711 162.892C197.468 162.733 197.243 162.574 196.914 162.574C196.759 162.574 196.603 162.574 196.447 162.662C196.36 160.562 195.893 159.908 195.737 159.679C195.581 159.432 195.425 159.202 195.183 158.955C194.785 158.549 194.473 158.073 194.231 157.508C193.919 156.943 193.832 156.29 194.075 155.654C195.096 155.813 196.049 156.131 197.001 156.466C199.615 157.596 200.481 157.755 201.122 157.684C202.143 157.596 203.026 156.961 203.425 155.99C203.511 155.831 203.58 155.743 203.667 155.584C203.753 155.425 203.823 155.337 203.823 155.178H203.909C204.221 155.266 204.55 156.06 204.463 156.714L204.429 156.678Z" fill="#A1A3A8"/>
<path d="M197.502 158.823C197.001 158.933 196.609 159.53 196.805 160.038C196.914 160.547 197.502 160.945 198.002 160.746C198.503 160.635 198.895 160.038 198.699 159.53C198.59 159.022 198.111 158.712 197.611 158.823H197.502Z" fill="#A1A3A8"/>
<path d="M212.255 174.661C210.021 172.532 206.983 171.434 203.858 171.434C201.624 171.348 199.389 171.828 197.381 172.841C196.421 171.039 194.501 169.855 192.353 169.786C189.246 169.786 186.767 172.223 186.767 175.279C186.767 178.334 189.246 180.771 192.353 180.771H209.288C209.934 180.771 210.405 180.308 210.405 179.673C210.405 179.038 209.934 178.574 209.288 178.574H192.423C190.59 178.574 189.141 177.167 189.141 175.347C189.141 173.528 190.573 172.12 192.423 172.12C193.942 172.12 195.304 173.219 195.618 174.712V174.798C195.618 175.038 195.705 175.261 195.862 175.433C196.264 175.896 196.98 175.982 197.468 175.588C198.987 174.403 201.152 173.785 203.858 173.785C206.407 173.785 208.816 174.729 210.649 176.463C210.894 176.703 211.121 176.772 211.452 176.772C211.784 176.772 212.098 176.617 212.255 176.377C212.814 175.914 212.901 175.124 212.413 174.575C212.325 174.661 212.325 174.575 212.255 174.661Z" fill="#A1A3A8"/>
</g>
<path d="M191.143 274.643C194.635 274.643 197.465 271.813 197.465 268.322C197.465 264.83 194.635 262 191.143 262C187.652 262 184.822 264.83 184.822 268.322C184.822 271.813 187.652 274.643 191.143 274.643Z" fill="url(#paint3_radial_113_15268)"/>
<path d="M191.144 272.846C193.643 272.846 195.668 270.82 195.668 268.322C195.668 265.823 193.643 263.798 191.144 263.798C188.646 263.798 186.62 265.823 186.62 268.322C186.62 270.82 188.646 272.846 191.144 272.846Z" fill="#C2C2C2"/>
<path d="M169.322 274.643C172.813 274.643 175.643 271.813 175.643 268.322C175.643 264.83 172.813 262 169.322 262C165.83 262 163 264.83 163 268.322C163 271.813 165.83 274.643 169.322 274.643Z" fill="url(#paint4_radial_113_15268)"/>
<path d="M169.322 272.846C171.821 272.846 173.846 270.82 173.846 268.322C173.846 265.823 171.821 263.798 169.322 263.798C166.824 263.798 164.798 265.823 164.798 268.322C164.798 270.82 166.824 272.846 169.322 272.846Z" fill="#C2C2C2"/>
<path d="M213.852 274.643C217.344 274.643 220.174 271.813 220.174 268.322C220.174 264.83 217.344 262 213.852 262C210.361 262 207.531 264.83 207.531 268.322C207.531 271.813 210.361 274.643 213.852 274.643Z" fill="url(#paint5_radial_113_15268)"/>
<path d="M213.853 272.846C216.352 272.846 218.377 270.82 218.377 268.322C218.377 265.823 216.352 263.798 213.853 263.798C211.355 263.798 209.329 265.823 209.329 268.322C209.329 270.82 211.355 272.846 213.853 272.846Z" fill="#C2C2C2"/>
<path d="M236.573 274.643C240.064 274.643 242.894 271.813 242.894 268.322C242.894 264.83 240.064 262 236.573 262C233.082 262 230.251 264.83 230.251 268.322C230.251 271.813 233.082 274.643 236.573 274.643Z" fill="url(#paint6_radial_113_15268)"/>
<path d="M236.573 272.846C239.071 272.846 241.097 270.82 241.097 268.322C241.097 265.823 239.071 263.798 236.573 263.798C234.074 263.798 232.049 265.823 232.049 268.322C232.049 270.82 234.074 272.846 236.573 272.846Z" fill="#C2C2C2"/>
<defs>
<filter id="filter0_d_113_15268" x="0" y="0" width="319.341" height="538" filterUnits="userSpaceOnUse" color-interpolation-filters="sRGB">
<feFlood flood-opacity="0" result="BackgroundImageFix"/>
<feColorMatrix in="SourceAlpha" type="matrix" values="0 0 0 0 0 0 0 0 0 0 0 0 0 0 0 0 0 0 127 0" result="hardAlpha"/>
<feOffset dy="1"/>
<feGaussianBlur stdDeviation="5"/>
<feComposite in2="hardAlpha" operator="out"/>
<feColorMatrix type="matrix" values="0 0 0 0 0 0 0 0 0 0 0 0 0 0 0 0 0 0 0.6 0"/>
<feBlend mode="normal" in2="BackgroundImageFix" result="effect1_dropShadow_113_15268"/>
<feBlend mode="normal" in="SourceGraphic" in2="effect1_dropShadow_113_15268" result="shape"/>
</filter>
<linearGradient id="paint0_linear_113_15268" x1="10.172" y1="526.798" x2="10.172" y2="9.3408" gradientUnits="userSpaceOnUse">
<stop stop-color="#967E7E"/>
<stop offset="0.21" stop-color="#F3DFDD"/>
<stop offset="0.83" stop-color="#F3DFDD"/>
<stop offset="1" stop-color="#967E7E"/>
</linearGradient>
<linearGradient id="paint1_linear_113_15268" x1="160.012" y1="526.99" x2="160.012" y2="9.1897" gradientUnits="userSpaceOnUse">
<stop stop-color="#967E7E"/>
<stop offset="0.21" stop-color="#F3DFDD"/>
<stop offset="0.83" stop-color="#F3DFDD"/>
<stop offset="1" stop-color="#967E7E"/>
</linearGradient>
<radialGradient id="paint2_radial_113_15268" cx="0" cy="0" r="1" gradientUnits="userSpaceOnUse" gradientTransform="translate(202.527 169.536) scale(35.4827 35.4827)">
<stop stop-color="#F4F6FB"/>
<stop offset="1" stop-color="#A0A2A7"/>
</radialGradient>
<radialGradient id="paint3_radial_113_15268" cx="0" cy="0" r="1" gradientUnits="userSpaceOnUse" gradientTransform="translate(191.143 10.0555) scale(0.499334)">
<stop stop-color="#967E7E"/>
<stop offset="1" stop-color="#F3DFDD"/>
</radialGradient>
<radialGradient id="paint4_radial_113_15268" cx="0" cy="0" r="1" gradientUnits="userSpaceOnUse" gradientTransform="translate(169.322 10.0555) scale(0.499334)">
<stop stop-color="#967E7E"/>
<stop offset="1" stop-color="#F3DFDD"/>
</radialGradient>
<radialGradient id="paint5_radial_113_15268" cx="0" cy="0" r="1" gradientUnits="userSpaceOnUse" gradientTransform="translate(213.852 10.0555) scale(0.499335)">
<stop stop-color="#967E7E"/>
<stop offset="1" stop-color="#F3DFDD"/>
</radialGradient>
<radialGradient id="paint6_radial_113_15268" cx="0" cy="0" r="1" gradientUnits="userSpaceOnUse" gradientTransform="translate(236.573 10.0555) scale(0.499335)">
<stop stop-color="#967E7E"/>
<stop offset="1" stop-color="#F3DFDD"/>
</radialGradient>
</defs>
</svg>
